<?xml version="1.0" standalone="no"?>
<!DOCTYPE svg PUBLIC "-//W3C//DTD SVG 20010904//EN"
 "http://www.w3.org/TR/2001/REC-SVG-20010904/DTD/svg10.dtd">
<svg version="1.0" xmlns="http://www.w3.org/2000/svg"
 width="2500.000000pt" height="510.000000pt" viewBox="0 0 2500.000000 510.000000"
 preserveAspectRatio="xMidYMid meet">

<g transform="translate(0.000000,510.000000) scale(0.100000,-0.100000)"
fill="#000000" stroke="none">
<path d="M6107 4796 l-25 -44 25 -43 c13 -24 40 -72 60 -108 20 -37 64 -116
98 -176 87 -152 202 -391 215 -446 6 -25 10 -63 8 -85 l-3 -39 -51 1 c-116 3
-259 77 -276 141 -8 32 5 75 62 198 12 24 17 51 13 68 -5 27 -8 28 -45 22 -21
-4 -46 -8 -56 -9 -18 -2 -68 -94 -97 -180 -16 -44 -16 -82 -3 -147 7 -31 52
-87 90 -110 21 -13 38 -27 38 -32 0 -4 4 -6 9 -2 5 3 12 1 15 -4 6 -9 143 -54
149 -49 2 2 10 -2 18 -8 8 -7 25 -11 39 -10 14 1 37 -1 51 -5 14 -4 33 -2 42
3 12 6 17 5 17 -3 0 -8 4 -8 15 1 8 7 15 9 15 4 0 -5 7 2 16 14 8 12 20 19 26
16 6 -4 8 -2 4 4 -3 6 -1 14 4 17 14 9 30 50 36 96 9 65 -33 214 -102 357 -35
74 -76 148 -90 165 -14 17 -39 58 -56 91 -48 98 -145 270 -183 324 -25 35 -50
28 -78 -22z"/>
<path d="M5341 4388 c-10 -24 -21 -59 -25 -79 -4 -23 -25 -58 -57 -95 -65 -75
-253 -269 -302 -311 -20 -18 -37 -36 -37 -41 0 -5 -39 -49 -86 -98 -107 -110
-235 -257 -339 -389 -83 -105 -158 -200 -178 -225 -7 -8 -58 -71 -113 -140
-342 -424 -678 -771 -816 -841 -136 -69 -173 -24 -223 268 -32 188 -45 367
-44 593 1 197 18 442 31 455 3 3 40 7 84 10 85 6 358 29 544 46 107 10 183 22
320 51 119 25 220 96 220 154 0 63 -60 122 -200 198 -188 100 -307 130 -530
131 -163 0 -166 0 -220 -29 -77 -40 -112 -69 -159 -129 -53 -70 -96 -158 -122
-253 -11 -44 -24 -82 -28 -86 -3 -4 -44 -10 -91 -13 -47 -4 -101 -9 -120 -11
-19 -2 -62 -4 -95 -4 -89 -1 -337 -27 -371 -40 -55 -20 -76 -34 -90 -63 -29
-54 6 -113 99 -173 90 -56 107 -119 60 -212 -48 -93 -120 -197 -226 -327 -112
-136 -254 -288 -260 -277 -11 19 -17 70 -27 222 -8 132 -7 214 5 410 27 415
28 485 16 613 -17 175 -40 268 -92 369 -33 66 -108 138 -174 169 -51 25 -72
29 -145 29 -76 0 -91 -3 -136 -30 -68 -38 -117 -97 -163 -195 -74 -156 -114
-364 -151 -785 -6 -69 -15 -168 -20 -220 -6 -52 -12 -124 -15 -160 -2 -36 -9
-119 -14 -185 -6 -66 -13 -208 -16 -315 -3 -107 -8 -216 -11 -242 -5 -44 -8
-48 -32 -48 -40 0 -234 53 -342 93 -232 87 -379 109 -434 66 -33 -26 -34 -70
-5 -119 42 -69 224 -232 374 -334 211 -144 374 -152 462 -23 32 48 63 135 63
180 0 24 3 25 88 33 48 4 90 7 95 6 4 -1 51 9 105 22 160 40 310 114 489 242
21 15 23 15 29 -2 44 -128 142 -258 247 -327 150 -99 311 -47 459 148 12 17
46 58 74 91 47 56 72 100 62 109 -2 2 -22 7 -43 10 l-40 6 -65 -81 c-153 -192
-211 -240 -287 -240 -115 0 -250 131 -308 299 l-26 74 51 44 c103 91 314 344
427 513 83 124 105 176 106 245 1 96 -34 148 -154 229 -37 24 -40 30 -25 38
23 13 110 25 276 38 74 6 151 12 170 14 19 2 74 7 122 11 l87 8 -4 -49 c-44
-442 -25 -806 62 -1184 30 -130 99 -203 189 -202 52 1 102 16 153 44 124 70
425 374 739 748 52 62 173 212 337 420 172 218 357 430 465 535 46 44 92 96
104 115 27 45 176 188 176 169 0 -8 -5 -30 -10 -49 -6 -19 -15 -77 -21 -128
-11 -108 -54 -323 -69 -352 -5 -10 -10 -38 -10 -61 0 -46 -53 -238 -123 -444
-371 -1094 -396 -1180 -367 -1236 16 -29 50 -23 86 16 31 35 162 307 285 596
34 79 72 168 85 197 13 29 24 55 24 57 0 8 51 117 150 320 128 262 258 455
306 455 19 0 39 -53 55 -141 16 -90 16 -513 0 -729 -23 -303 -10 -629 29 -760
22 -74 67 -126 115 -133 77 -11 176 80 292 268 47 75 165 309 235 462 46 100
86 181 90 180 4 -1 64 -69 135 -152 181 -212 613 -643 741 -738 57 -43 119
-84 139 -92 74 -31 134 -11 149 51 19 77 -35 241 -178 544 -168 354 -200 568
-101 672 54 57 193 88 327 74 l66 -8 0 -117 c0 -293 58 -491 178 -603 88 -82
160 -109 294 -109 157 0 283 37 528 153 188 90 175 84 250 112 178 65 323 72
423 21 32 -16 70 -43 84 -60 26 -29 78 -133 72 -139 -2 -2 -80 -43 -174 -91
-93 -48 -192 -100 -220 -115 -27 -15 -131 -69 -230 -120 -331 -171 -551 -316
-671 -442 -150 -158 -172 -287 -67 -399 43 -46 59 -57 143 -99 56 -28 178 -67
265 -85 44 -10 89 -19 100 -21 58 -12 238 -15 301 -5 194 30 334 113 444 261
82 112 127 210 170 375 33 129 46 206 55 330 4 50 8 104 10 122 2 18 -2 80 -9
138 l-13 105 51 29 c53 29 166 93 274 154 l62 36 0 -58 c0 -131 44 -284 114
-399 47 -76 168 -202 195 -202 5 0 11 -3 13 -7 10 -25 204 -104 298 -122 30
-6 66 -14 80 -17 64 -14 186 -16 256 -4 258 41 425 206 537 530 14 41 28 84
30 95 3 11 5 -63 6 -165 2 -309 26 -443 91 -511 29 -31 44 -39 72 -39 66 0
146 76 233 225 48 81 170 323 214 425 13 30 32 73 41 95 10 22 41 96 70 165
29 69 60 143 70 165 10 22 26 58 36 80 l18 40 3 -30 c60 -534 131 -969 176
-1078 8 -18 25 -44 38 -58 21 -22 28 -25 57 -17 61 16 87 114 117 443 64 709
124 1085 246 1550 88 333 151 495 191 495 14 0 63 -116 86 -205 41 -157 92
-473 126 -780 9 -77 18 -158 21 -180 2 -22 11 -110 20 -195 80 -795 186 -1102
353 -1016 90 47 181 290 301 801 72 310 202 853 211 885 11 39 13 93 4 103 -4
3 -24 -3 -44 -13 -37 -19 -49 -40 -55 -100 -1 -8 -9 -44 -18 -80 -22 -89 -78
-322 -82 -340 -2 -8 -10 -42 -18 -75 -9 -33 -18 -71 -20 -85 -3 -14 -12 -54
-21 -90 -9 -36 -18 -74 -20 -85 -13 -66 -60 -256 -72 -288 -8 -20 -14 -46 -14
-57 0 -11 -16 -73 -36 -138 -20 -64 -40 -130 -45 -147 -5 -16 -13 -39 -18 -50
-5 -11 -19 -41 -31 -67 -26 -58 -57 -98 -75 -98 -7 0 -22 15 -33 33 -20 33
-65 158 -76 212 -4 17 -9 41 -12 55 -12 57 -46 266 -59 365 -3 28 -8 61 -10
75 -2 14 -9 72 -15 130 -6 58 -13 121 -15 140 -2 19 -7 69 -10 110 -4 41 -11
102 -15 135 -5 33 -12 87 -15 120 -2 33 -7 71 -10 85 -2 14 -7 46 -9 72 -3 26
-10 76 -15 110 -5 35 -12 81 -15 103 -8 58 -18 117 -23 140 -2 11 -8 45 -14
75 -23 120 -61 246 -97 324 -43 92 -72 113 -138 103 -57 -9 -88 -57 -147 -222
-55 -156 -103 -323 -141 -495 -4 -14 -12 -52 -20 -85 -11 -50 -38 -172 -51
-236 -2 -9 -6 -32 -9 -50 -3 -19 -8 -45 -10 -59 -3 -14 -7 -45 -10 -70 -3 -25
-8 -56 -11 -70 -3 -14 -8 -45 -11 -69 -3 -25 -7 -48 -9 -51 -2 -3 -6 -33 -10
-65 -3 -33 -10 -91 -16 -130 -5 -38 -11 -99 -14 -135 -3 -36 -7 -76 -9 -90 -3
-14 -8 -61 -11 -105 -3 -44 -8 -100 -10 -125 -3 -25 -7 -67 -10 -95 -5 -57
-13 -131 -22 -190 -3 -22 -7 -51 -8 -63 -4 -25 -12 -38 -19 -31 -5 5 -45 179
-51 219 -2 14 -9 54 -15 90 -7 36 -14 82 -16 103 -2 21 -5 46 -8 55 -6 21 -13
75 -26 207 -5 55 -18 161 -29 235 -22 155 -33 254 -32 291 1 14 19 68 42 120
23 52 51 119 64 149 83 198 177 385 213 424 51 55 57 77 36 122 -20 43 -78 87
-183 139 -128 65 -207 58 -267 -20 -49 -64 -52 -189 -17 -688 11 -164 12 -235
5 -250 -19 -39 -64 -141 -84 -192 -11 -27 -30 -73 -44 -103 -13 -29 -24 -55
-24 -58 0 -3 -11 -29 -24 -57 -13 -29 -36 -81 -51 -117 -26 -66 -33 -81 -78
-180 -133 -291 -233 -465 -306 -527 -14 -13 -31 -23 -37 -23 -18 0 -45 70 -60
155 -15 86 -20 414 -9 675 11 274 17 661 11 686 -4 14 -17 29 -29 33 -24 10
-61 -4 -52 -20 4 -5 2 -9 -3 -9 -11 0 -24 -98 -52 -405 -11 -115 -27 -253 -35
-305 -16 -96 -58 -269 -75 -305 -100 -220 -150 -286 -269 -357 -122 -71 -315
-87 -486 -39 -38 11 -81 23 -95 26 -41 12 -152 66 -199 98 -92 62 -166 166
-205 287 -29 89 -49 223 -44 294 l3 49 210 129 c313 192 686 441 805 537 24
20 56 45 70 56 14 11 63 57 108 103 100 99 137 169 129 239 -12 107 -117 152
-362 153 -245 0 -414 -48 -576 -166 -61 -45 -177 -167 -226 -240 -119 -175
-213 -443 -238 -677 -6 -56 -12 -73 -34 -93 -14 -13 -29 -24 -33 -24 -3 0 -51
-26 -105 -58 -54 -32 -132 -77 -174 -100 l-76 -42 -31 63 c-67 135 -185 211
-337 216 -155 5 -295 -38 -587 -177 -145 -70 -303 -129 -368 -137 -181 -23
-264 -3 -361 87 -33 31 -83 118 -94 163 -3 11 -12 45 -21 75 -11 37 -18 112
-21 224 l-6 169 24 -7 c13 -3 44 -11 69 -16 25 -5 90 -23 145 -40 55 -17 107
-33 115 -35 8 -2 42 -14 75 -25 33 -12 69 -23 80 -26 11 -2 31 -8 45 -13 14
-5 43 -13 65 -19 22 -6 65 -18 95 -26 537 -144 927 -91 1086 149 78 118 116
303 95 470 -34 269 -176 455 -451 591 -79 39 -255 99 -335 115 -139 28 -286
49 -337 49 -74 0 -245 -34 -311 -62 -294 -123 -480 -451 -532 -938 l-6 -55
-142 0 c-158 0 -217 -13 -288 -65 -86 -62 -121 -137 -123 -265 -2 -137 57
-328 173 -565 83 -168 181 -433 166 -448 -43 -43 -651 539 -958 917 -58 72
-74 97 -67 110 17 30 71 164 129 321 123 329 150 508 90 592 -33 46 -72 61
-153 56 -152 -7 -350 -139 -414 -275 -23 -49 -27 -74 -30 -159 -3 -90 -1 -107
22 -164 37 -91 116 -231 186 -327 l59 -82 -38 -88 c-21 -49 -56 -124 -77 -168
-21 -44 -39 -82 -39 -85 -3 -12 -30 -67 -45 -90 -9 -14 -34 -56 -54 -95 -126
-235 -235 -385 -282 -385 -33 0 -58 57 -73 160 -10 73 -7 672 3 735 3 17 6
143 7 280 2 341 -19 486 -80 553 -50 54 -128 36 -203 -47 -76 -85 -231 -347
-297 -501 -13 -30 -34 -80 -48 -110 -14 -30 -57 -127 -95 -215 -39 -88 -80
-182 -93 -210 -12 -27 -37 -87 -55 -132 -19 -46 -35 -81 -37 -79 -2 1 9 36 23
77 14 41 27 81 29 89 3 8 32 94 66 190 274 783 358 1086 359 1300 0 66 28 233
56 328 13 48 26 70 62 108 7 7 24 38 37 69 l25 55 -75 0 -76 0 -18 -42z
m-3662 -246 c27 -16 61 -51 82 -81 31 -47 45 -81 80 -196 28 -89 32 -408 10
-720 -16 -237 -10 -535 15 -675 l16 -94 -33 -29 c-87 -72 -250 -167 -352 -203
-89 -33 -187 -54 -280 -60 l-97 -7 0 29 c2 169 41 804 59 956 5 46 15 142 21
213 42 496 103 731 220 845 56 55 71 60 154 54 41 -3 72 -12 105 -32z m7063
-158 c247 -47 431 -111 555 -194 61 -42 157 -133 192 -185 149 -220 128 -591
-43 -741 -88 -78 -239 -124 -406 -124 -74 0 -304 25 -319 35 -5 2 -23 6 -42 9
-19 2 -72 14 -119 26 -47 12 -93 23 -103 25 -20 4 -33 9 -197 62 -63 20 -119
38 -125 40 -5 1 -63 18 -128 37 -64 19 -138 38 -163 42 -42 6 -45 8 -40 33 3
14 8 51 11 81 36 317 140 561 304 712 146 135 380 189 623 142z m-5051 -4
c104 -13 155 -25 242 -57 120 -44 287 -142 287 -168 0 -48 -220 -100 -534
-125 -65 -5 -155 -14 -200 -20 -44 -5 -105 -10 -135 -10 -30 0 -81 -5 -113
-12 -31 -7 -60 -9 -63 -6 -11 10 16 103 50 173 59 123 138 196 239 221 65 16
122 17 227 4z m8882 -255 c9 -4 17 -12 17 -18 0 -6 3 -7 6 -4 13 13 144 -74
144 -95 0 -4 -8 -16 -17 -26 -43 -46 -71 -91 -106 -172 -18 -42 -62 -139 -87
-195 -10 -22 -32 -71 -48 -109 -16 -37 -32 -64 -35 -60 -8 15 -22 308 -22 482
l0 164 32 28 c32 29 56 30 116 5z m-5976 -130 c12 -9 24 -30 27 -52 9 -57 -33
-240 -101 -443 -29 -84 -116 -300 -122 -300 -14 1 -135 200 -182 300 -51 107
-46 230 12 318 60 92 215 182 329 191 9 0 25 -6 37 -14z m4688 -62 c44 -16 50
-22 53 -51 4 -44 -49 -122 -136 -199 -161 -143 -503 -380 -922 -638 -52 -32
-105 -68 -117 -79 -13 -11 -26 -16 -30 -12 -10 10 34 217 68 321 134 401 371
625 715 674 102 14 312 5 369 -16z m-10905 -1367 c39 -7 128 -35 300 -95 106
-37 243 -72 298 -76 42 -3 46 -18 21 -92 -24 -73 -61 -117 -107 -128 -33 -7
-124 23 -201 66 -31 18 -58 35 -61 38 -3 4 -30 24 -60 46 -71 51 -247 211
-261 236 -9 17 -7 19 13 15 13 -3 39 -7 58 -10z m9174 -78 c19 -71 -2 -354
-39 -533 -51 -245 -166 -446 -309 -544 -107 -72 -288 -109 -448 -91 -87 10
-279 51 -323 70 -95 40 -144 65 -172 86 -142 108 -37 285 296 499 9 6 36 23
60 39 25 16 67 42 95 56 28 15 67 37 86 48 19 11 103 55 185 97 203 104 378
197 472 250 43 24 81 44 84 44 4 1 9 -9 13 -21z"/>
<path d="M22534 4160 c-82 -56 -193 -131 -246 -167 -65 -44 -98 -72 -98 -85 0
-16 10 -18 120 -18 l120 0 0 -392 c0 -377 1 -393 21 -435 25 -53 82 -94 170
-123 58 -20 78 -22 219 -17 90 3 182 12 219 21 87 22 251 88 251 101 -1 5 -11
23 -24 39 l-24 29 -89 -29 c-75 -25 -104 -29 -198 -29 -130 0 -191 21 -225 77
-19 32 -20 49 -20 395 l0 363 253 2 252 3 3 58 3 57 -255 0 -255 0 -3 123 c-3
115 -4 122 -24 125 -13 2 -76 -35 -170 -98z"/>
<path d="M14920 4184 c-47 -29 -116 -72 -155 -95 -76 -46 -178 -111 -264 -168
-30 -20 -76 -57 -103 -83 -39 -38 -48 -53 -48 -82 0 -46 37 -76 94 -76 40 0
186 23 216 34 8 3 26 8 40 10 14 3 68 14 120 26 52 12 102 22 111 22 9 0 26
10 38 22 l21 22 -29 28 -30 29 -73 -16 c-40 -8 -138 -29 -217 -46 -80 -17
-149 -30 -155 -28 -14 5 130 101 364 244 218 133 240 149 240 169 0 12 -62 46
-79 43 -3 -1 -44 -25 -91 -55z"/>
<path d="M19230 4035 c-190 -38 -342 -130 -404 -245 -38 -69 -46 -165 -21
-239 22 -68 97 -148 176 -191 l62 -33 -83 -43 c-162 -84 -211 -164 -160 -264
22 -44 62 -75 128 -100 39 -15 43 -20 27 -25 -67 -23 -172 -83 -218 -125 -63
-58 -87 -101 -87 -159 0 -147 166 -246 474 -282 149 -17 485 -6 609 20 257 56
429 156 494 288 22 46 25 63 21 127 -3 63 -8 81 -33 118 -59 83 -142 129 -296
163 -58 13 -147 18 -404 21 -396 6 -409 7 -447 44 -52 53 -32 112 51 154 42
22 52 23 92 14 24 -6 112 -11 194 -11 121 0 166 4 230 22 174 46 313 141 366
248 19 38 24 64 24 123 0 91 -24 149 -84 209 -23 23 -41 43 -41 45 0 2 71 6
158 10 86 4 161 11 165 15 5 5 7 24 5 42 l-3 34 -300 6 c-165 3 -320 11 -345
17 -61 15 -270 13 -350 -3z m333 -118 c95 -43 138 -126 140 -267 1 -75 -2 -93
-27 -143 -47 -96 -123 -137 -255 -137 -102 0 -167 21 -223 70 -61 53 -90 122
-91 215 0 111 31 182 106 239 79 60 246 71 350 23z m219 -1064 c158 -47 214
-138 156 -253 -61 -119 -241 -180 -533 -180 -229 0 -364 35 -430 113 -40 47
-53 107 -35 163 18 54 86 123 155 156 l60 29 280 -4 c243 -4 289 -7 347 -24z"/>
<path d="M21003 4035 c-297 -52 -512 -214 -569 -430 -18 -65 -17 -196 0 -262
33 -125 109 -222 229 -297 158 -97 323 -131 600 -123 156 4 196 9 276 31 136
38 262 106 341 186 107 106 150 208 150 355 0 142 -41 251 -128 340 -90 92
-191 145 -357 187 -107 27 -420 34 -542 13z m361 -112 c81 -20 130 -46 188
-101 57 -53 88 -103 120 -188 18 -50 22 -80 22 -194 0 -117 -3 -143 -22 -191
-44 -112 -138 -186 -269 -214 -189 -40 -389 4 -504 112 -100 93 -138 182 -146
343 -11 217 66 357 235 423 96 38 251 42 376 10z"/>
<path d="M16005 4001 c-82 -18 -150 -57 -214 -122 -108 -111 -160 -253 -148
-409 l6 -78 -42 5 c-23 2 -72 8 -108 13 -271 38 -399 15 -479 -85 -36 -46 -44
-73 -37 -127 8 -59 49 -104 173 -186 128 -85 150 -88 147 -22 -1 24 -6 46 -11
48 -5 1 -43 24 -83 51 -84 55 -139 107 -139 132 0 26 48 78 87 94 47 20 199
19 356 0 171 -22 160 -17 181 -77 30 -85 112 -236 179 -329 119 -165 175 -227
467 -516 239 -237 322 -335 380 -448 31 -58 40 -87 40 -125 0 -100 -62 -206
-193 -333 -138 -132 -255 -187 -397 -187 -203 1 -502 143 -689 327 -65 64 -82
87 -94 130 -19 64 -9 112 31 144 24 19 36 21 122 17 112 -6 155 -19 430 -133
107 -45 203 -80 213 -77 9 2 17 14 17 26 0 52 -10 61 -103 100 -51 21 -111 47
-134 58 -76 33 -283 109 -283 103 0 -2 -21 3 -47 11 -67 20 -182 18 -235 -5
-138 -59 -157 -238 -41 -386 91 -115 333 -277 531 -355 75 -29 222 -60 285
-60 74 0 199 35 281 78 94 50 297 250 344 339 87 164 82 267 -20 424 -70 110
-174 226 -438 489 -248 247 -358 376 -458 535 -27 45 -102 196 -102 208 0 3
19 1 43 -3 182 -35 274 -43 467 -43 163 0 219 3 275 17 161 41 229 73 299 143
106 104 115 215 25 317 -84 97 -316 212 -554 277 -79 22 -269 33 -330 20z
m220 -96 c50 -8 118 -23 152 -34 75 -23 242 -90 263 -106 8 -6 32 -20 54 -30
55 -28 137 -104 152 -142 38 -90 -81 -200 -271 -249 -89 -23 -445 -26 -600 -5
-113 16 -214 36 -224 46 -3 4 -6 62 -6 128 1 117 2 125 34 187 56 112 141 182
250 206 76 16 92 16 196 -1z"/>
<path d="M19620 2055 c-52 -8 -132 -19 -178 -26 l-83 -11 3 -37 3 -36 115 -11
c63 -7 116 -12 118 -13 1 -1 2 -313 2 -695 l0 -695 -52 -5 c-29 -3 -83 -8
-120 -11 l-68 -7 0 -39 0 -39 350 0 350 0 0 39 0 39 -77 6 c-43 4 -97 9 -120
12 l-43 5 -2 767 -3 767 -50 2 c-27 1 -93 -5 -145 -12z"/>
<path d="M17430 1517 c-96 -84 -176 -160 -178 -170 -3 -15 7 -17 87 -17 l90 0
3 -388 3 -388 26 -40 c16 -24 48 -51 80 -69 71 -38 183 -46 305 -20 91 19 227
81 231 105 2 8 -6 26 -16 40 l-20 25 -46 -23 c-86 -42 -225 -46 -285 -10 -12
7 -30 30 -41 50 -18 35 -19 62 -19 378 l0 340 190 0 190 0 0 55 0 55 -190 0
-190 0 0 115 c0 113 0 115 -22 114 -15 0 -87 -56 -198 -152z"/>
<path d="M23070 1517 c-96 -84 -176 -160 -178 -170 -3 -15 7 -17 87 -17 l90 0
3 -388 3 -388 26 -40 c16 -24 48 -51 80 -69 71 -38 183 -46 305 -20 91 19 227
81 231 105 2 8 -6 26 -16 40 l-20 25 -46 -23 c-86 -42 -225 -46 -285 -10 -12
7 -30 30 -41 50 -18 35 -19 62 -19 378 l0 340 190 0 190 0 0 55 0 55 -190 0
-190 0 0 115 c0 113 0 115 -22 114 -15 0 -87 -56 -198 -152z"/>
<path d="M18550 1474 c-57 -7 -189 -35 -241 -50 l-49 -15 0 -135 0 -135 56 3
57 3 22 93 c12 51 24 95 27 97 14 14 134 35 203 35 64 0 90 -5 125 -22 70 -36
84 -70 88 -213 l4 -121 -114 -12 c-156 -18 -250 -38 -338 -75 -198 -82 -268
-273 -154 -422 14 -19 51 -47 82 -62 53 -26 66 -28 177 -28 135 1 180 14 296
84 l64 39 13 -59 14 -59 56 7 c32 3 116 13 187 22 l130 16 0 29 c0 29 -2 30
-86 51 -47 12 -91 25 -98 29 -8 5 -11 105 -11 360 0 350 0 353 -23 397 -29 55
-92 103 -160 125 -52 16 -254 27 -327 18z m290 -703 l0 -148 -61 -27 c-89 -39
-187 -53 -247 -37 -59 15 -89 43 -103 94 -20 75 11 159 73 197 55 33 195 67
286 69 l52 1 0 -149z"/>
<path d="M20604 1465 c-134 -29 -252 -109 -327 -222 -62 -94 -88 -176 -95
-296 -8 -169 30 -280 132 -383 72 -72 159 -117 266 -140 99 -21 297 -14 390
13 76 23 207 77 234 98 18 13 18 15 -4 49 -12 20 -23 36 -25 36 -2 0 -27 -11
-57 -25 -88 -41 -187 -58 -303 -53 -87 4 -111 9 -167 35 -78 37 -137 93 -173
164 -25 49 -54 159 -55 206 l0 23 398 2 397 3 3 67 c3 79 -20 187 -53 243 -31
55 -106 122 -161 146 -105 47 -276 61 -400 34z m233 -110 c81 -34 127 -110
139 -228 l7 -67 -280 0 -280 0 9 53 c33 180 144 275 310 262 32 -3 75 -12 95
-20z"/>
<path d="M24144 1466 c-80 -18 -155 -57 -211 -109 -58 -53 -83 -106 -83 -177
0 -144 97 -226 383 -325 169 -59 212 -98 211 -191 0 -67 -22 -100 -89 -133
-41 -21 -62 -25 -139 -24 -61 1 -109 7 -146 19 l-55 19 -24 103 -25 102 -53 0
-53 0 0 -144 0 -144 93 -23 c267 -64 511 -20 636 117 55 58 71 99 71 174 0 76
-16 114 -69 166 -57 56 -117 87 -275 144 -198 70 -256 116 -256 202 0 50 52
109 112 128 54 16 171 15 222 -2 37 -12 40 -16 53 -73 8 -33 18 -77 24 -97
l10 -38 55 0 55 0 -3 138 -3 137 -70 18 c-95 24 -292 31 -371 13z"/>
<path d="M22070 1449 c-41 -10 -108 -35 -149 -54 -40 -19 -77 -35 -82 -35 -5
0 -9 23 -9 50 l0 50 -44 0 c-24 0 -121 -11 -216 -25 -95 -14 -174 -25 -176
-25 -4 0 -6 -69 -1 -71 1 -1 52 -6 112 -13 l110 -11 3 -388 2 -387 -26 -10
c-14 -6 -42 -10 -63 -10 -21 0 -59 -3 -85 -6 -46 -7 -46 -7 -46 -45 l0 -39
315 0 315 0 0 39 c0 37 -2 39 -37 45 -21 3 -55 6 -75 6 -20 0 -48 4 -62 10
l-26 10 0 360 0 360 36 15 c70 29 194 48 284 43 128 -8 187 -44 218 -137 8
-23 12 -136 12 -342 l0 -308 -47 -6 c-154 -19 -148 -16 -148 -55 l0 -35 308
-3 307 -2 0 39 0 40 -57 6 c-32 3 -77 8 -100 11 l-42 5 -3 362 -3 362 -30 60
c-35 70 -91 117 -167 140 -74 22 -234 19 -328 -6z"/>
</g>
</svg>
