<svg id="svg" version="1.1" xmlns="http://www.w3.org/2000/svg" xmlns:xlink="http://www.w3.org/1999/xlink" width="400" height="400" viewBox="0, 0, 400,400"><g id="svgg"><path id="path0" d="M26.332 58.693 C 25.304 58.774,24.247 59.102,23.983 59.421 C 23.718 59.739,22.909 60.000,22.184 60.000 C 20.469 60.000,19.600 60.351,19.600 61.043 C 19.600 61.416,19.125 61.600,18.163 61.600 C 17.085 61.600,16.675 61.791,16.526 62.362 C 16.399 62.848,15.832 63.218,14.963 63.381 C 14.154 63.532,13.600 63.873,13.600 64.218 C 13.600 64.542,13.229 64.800,12.763 64.800 C 12.275 64.800,11.842 65.119,11.726 65.563 C 11.616 65.983,11.183 66.416,10.763 66.526 C 10.343 66.635,10.000 67.012,10.000 67.363 C 10.000 67.713,9.730 68.000,9.400 68.000 C 9.067 68.000,8.800 68.356,8.800 68.800 C 8.800 69.333,8.533 69.600,8.000 69.600 C 7.467 69.600,7.200 69.867,7.200 70.400 C 7.200 70.933,6.933 71.200,6.400 71.200 C 5.883 71.200,5.600 71.467,5.600 71.953 C 5.600 72.370,5.243 72.800,4.800 72.916 C 4.187 73.076,4.000 73.462,4.000 74.563 C 4.000 75.733,3.852 76.000,3.200 76.000 C 2.558 76.000,2.400 76.267,2.400 77.353 C 2.400 78.370,2.201 78.759,1.600 78.916 C 0.946 79.087,0.800 79.462,0.800 80.963 C 0.800 81.973,0.620 82.800,0.400 82.800 C 0.134 82.800,0.000 122.133,0.000 200.000 C 0.000 277.867,0.134 317.200,0.400 317.200 C 0.620 317.200,0.800 318.027,0.800 319.037 C 0.800 320.538,0.946 320.913,1.600 321.084 C 2.201 321.241,2.400 321.630,2.400 322.647 C 2.400 323.733,2.558 324.000,3.200 324.000 C 3.852 324.000,4.000 324.267,4.000 325.437 C 4.000 326.538,4.187 326.924,4.800 327.084 C 5.243 327.200,5.600 327.630,5.600 328.047 C 5.600 328.533,5.883 328.800,6.400 328.800 C 6.933 328.800,7.200 329.067,7.200 329.600 C 7.200 330.133,7.467 330.400,8.000 330.400 C 8.533 330.400,8.800 330.667,8.800 331.200 C 8.800 331.640,9.049 332.000,9.353 332.000 C 9.658 332.000,10.001 332.360,10.116 332.800 C 10.231 333.240,10.591 333.600,10.916 333.600 C 11.241 333.600,11.601 333.960,11.716 334.400 C 11.841 334.879,12.262 335.200,12.763 335.200 C 13.229 335.200,13.600 335.458,13.600 335.782 C 13.600 336.127,14.154 336.468,14.963 336.619 C 15.832 336.782,16.399 337.152,16.526 337.638 C 16.675 338.209,17.085 338.400,18.163 338.400 C 19.125 338.400,19.600 338.584,19.600 338.957 C 19.600 339.696,20.486 340.000,22.633 340.000 C 23.853 340.000,24.400 340.168,24.400 340.542 C 24.400 341.562,29.747 341.594,200.000 341.594 C 370.253 341.594,375.600 341.562,375.600 340.542 C 375.600 340.168,376.147 340.000,377.367 340.000 C 379.514 340.000,380.400 339.696,380.400 338.957 C 380.400 338.584,380.875 338.400,381.837 338.400 C 382.915 338.400,383.325 338.209,383.474 337.638 C 383.601 337.152,384.168 336.782,385.037 336.619 C 385.846 336.468,386.400 336.127,386.400 335.782 C 386.400 335.458,386.771 335.200,387.237 335.200 C 387.738 335.200,388.159 334.879,388.284 334.400 C 388.399 333.960,388.759 333.600,389.084 333.600 C 389.409 333.600,389.769 333.240,389.884 332.800 C 389.999 332.360,390.342 332.000,390.647 332.000 C 390.951 332.000,391.200 331.640,391.200 331.200 C 391.200 330.667,391.467 330.400,392.000 330.400 C 392.533 330.400,392.800 330.133,392.800 329.600 C 392.800 329.067,393.067 328.800,393.600 328.800 C 394.117 328.800,394.400 328.533,394.400 328.047 C 394.400 327.630,394.757 327.200,395.200 327.084 C 395.813 326.924,396.000 326.538,396.000 325.437 C 396.000 324.267,396.148 324.000,396.800 324.000 C 397.442 324.000,397.600 323.733,397.600 322.647 C 397.600 321.630,397.799 321.241,398.400 321.084 C 399.080 320.906,399.200 320.538,399.200 318.637 C 399.200 317.407,399.380 316.400,399.600 316.400 C 399.866 316.400,400.000 277.200,400.000 199.600 C 400.000 122.000,399.866 82.800,399.600 82.800 C 399.380 82.800,399.200 81.973,399.200 80.963 C 399.200 79.462,399.054 79.087,398.400 78.916 C 397.799 78.759,397.600 78.370,397.600 77.353 C 397.600 76.267,397.442 76.000,396.800 76.000 C 396.148 76.000,396.000 75.733,396.000 74.563 C 396.000 73.462,395.813 73.076,395.200 72.916 C 394.757 72.800,394.400 72.370,394.400 71.953 C 394.400 71.467,394.117 71.200,393.600 71.200 C 393.067 71.200,392.800 70.933,392.800 70.400 C 392.800 69.867,392.533 69.600,392.000 69.600 C 391.467 69.600,391.200 69.333,391.200 68.800 C 391.200 68.360,390.951 68.000,390.647 68.000 C 390.342 68.000,389.999 67.640,389.884 67.200 C 389.769 66.760,389.409 66.400,389.084 66.400 C 388.759 66.400,388.399 66.040,388.284 65.600 C 388.159 65.121,387.738 64.800,387.237 64.800 C 386.771 64.800,386.400 64.542,386.400 64.218 C 386.400 63.873,385.846 63.532,385.037 63.381 C 384.168 63.218,383.601 62.848,383.474 62.362 C 383.325 61.791,382.915 61.600,381.837 61.600 C 380.875 61.600,380.400 61.416,380.400 61.043 C 380.400 60.304,379.514 60.000,377.367 60.000 C 376.147 60.000,375.600 59.832,375.600 59.458 C 375.600 59.080,374.780 58.838,372.900 58.661 C 370.109 58.397,29.655 58.429,26.332 58.693 M355.600 84.400 C 355.600 84.933,355.333 85.200,354.800 85.200 C 354.267 85.200,354.000 85.467,354.000 86.000 C 354.000 86.533,353.733 86.800,353.200 86.800 C 352.667 86.800,352.400 87.067,352.400 87.600 C 352.400 88.133,352.133 88.400,351.600 88.400 C 351.067 88.400,350.800 88.667,350.800 89.200 C 350.800 89.733,350.533 90.000,350.000 90.000 C 349.467 90.000,349.200 90.267,349.200 90.800 C 349.200 91.333,348.933 91.600,348.400 91.600 C 347.956 91.600,347.600 91.867,347.600 92.200 C 347.600 92.530,347.313 92.800,346.963 92.800 C 346.612 92.800,346.231 93.160,346.116 93.600 C 346.001 94.040,345.641 94.400,345.316 94.400 C 344.991 94.400,344.631 94.760,344.516 95.200 C 344.401 95.640,344.041 96.000,343.716 96.000 C 343.391 96.000,343.031 96.360,342.916 96.800 C 342.801 97.240,342.458 97.600,342.153 97.600 C 341.849 97.600,341.600 97.960,341.600 98.400 C 341.600 98.933,341.333 99.200,340.800 99.200 C 340.267 99.200,340.000 99.467,340.000 100.000 C 340.000 100.533,339.733 100.800,339.200 100.800 C 338.667 100.800,338.400 101.067,338.400 101.600 C 338.400 102.133,338.133 102.400,337.600 102.400 C 337.067 102.400,336.800 102.667,336.800 103.200 C 336.800 103.733,336.533 104.000,336.000 104.000 C 335.467 104.000,335.200 104.267,335.200 104.800 C 335.200 105.333,334.933 105.600,334.400 105.600 C 333.867 105.600,333.600 105.867,333.600 106.400 C 333.600 106.933,333.333 107.200,332.800 107.200 C 332.267 107.200,332.000 107.467,332.000 108.000 C 332.000 108.533,331.733 108.800,331.200 108.800 C 330.760 108.800,330.400 109.049,330.400 109.353 C 330.400 109.658,330.040 110.001,329.600 110.116 C 329.160 110.231,328.800 110.591,328.800 110.916 C 328.800 111.241,328.440 111.601,328.000 111.716 C 327.560 111.831,327.200 112.212,327.200 112.563 C 327.200 112.913,326.942 113.200,326.627 113.200 C 326.312 113.200,325.940 113.560,325.800 114.000 C 325.660 114.440,325.288 114.800,324.973 114.800 C 324.658 114.800,324.400 115.160,324.400 115.600 C 324.400 116.133,324.133 116.400,323.600 116.400 C 323.067 116.400,322.800 116.667,322.800 117.200 C 322.800 117.733,322.533 118.000,322.000 118.000 C 321.467 118.000,321.200 118.267,321.200 118.800 C 321.200 119.333,320.933 119.600,320.400 119.600 C 319.867 119.600,319.600 119.867,319.600 120.400 C 319.600 120.933,319.333 121.200,318.800 121.200 C 318.267 121.200,318.000 121.467,318.000 122.000 C 318.000 122.533,317.733 122.800,317.200 122.800 C 316.667 122.800,316.400 123.067,316.400 123.600 C 316.400 124.133,316.133 124.400,315.600 124.400 C 315.160 124.400,314.800 124.658,314.800 124.973 C 314.800 125.288,314.440 125.660,314.000 125.800 C 313.560 125.940,313.200 126.291,313.200 126.580 C 313.200 126.870,312.840 127.201,312.400 127.316 C 311.960 127.431,311.600 127.791,311.600 128.116 C 311.600 128.441,311.240 128.801,310.800 128.916 C 310.360 129.031,310.000 129.412,310.000 129.763 C 310.000 130.113,309.730 130.400,309.400 130.400 C 309.067 130.400,308.800 130.756,308.800 131.200 C 308.800 131.733,308.533 132.000,308.000 132.000 C 307.467 132.000,307.200 132.267,307.200 132.800 C 307.200 133.333,306.933 133.600,306.400 133.600 C 305.867 133.600,305.600 133.867,305.600 134.400 C 305.600 134.933,305.333 135.200,304.800 135.200 C 304.267 135.200,304.000 135.467,304.000 136.000 C 304.000 136.533,303.733 136.800,303.200 136.800 C 302.667 136.800,302.400 137.067,302.400 137.600 C 302.400 138.133,302.133 138.400,301.600 138.400 C 301.067 138.400,300.800 138.667,300.800 139.200 C 300.800 139.733,300.533 140.000,300.000 140.000 C 299.467 140.000,299.200 140.267,299.200 140.800 C 299.200 141.333,298.933 141.600,298.400 141.600 C 297.960 141.600,297.600 141.849,297.600 142.153 C 297.600 142.458,297.240 142.801,296.800 142.916 C 296.360 143.031,296.000 143.391,296.000 143.716 C 296.000 144.041,295.640 144.401,295.200 144.516 C 294.760 144.631,294.400 144.991,294.400 145.316 C 294.400 145.641,294.040 146.001,293.600 146.116 C 293.160 146.231,292.800 146.612,292.800 146.963 C 292.800 147.313,292.530 147.600,292.200 147.600 C 291.867 147.600,291.600 147.956,291.600 148.400 C 291.600 148.933,291.333 149.200,290.800 149.200 C 290.267 149.200,290.000 149.467,290.000 150.000 C 290.000 150.533,289.733 150.800,289.200 150.800 C 288.667 150.800,288.400 151.067,288.400 151.600 C 288.400 152.133,288.133 152.400,287.600 152.400 C 287.067 152.400,286.800 152.667,286.800 153.200 C 286.800 153.733,286.533 154.000,286.000 154.000 C 285.467 154.000,285.200 154.267,285.200 154.800 C 285.200 155.333,284.933 155.600,284.400 155.600 C 283.867 155.600,283.600 155.867,283.600 156.400 C 283.600 156.933,283.333 157.200,282.800 157.200 C 282.267 157.200,282.000 157.467,282.000 158.000 C 282.000 158.533,281.733 158.800,281.200 158.800 C 280.760 158.800,280.400 159.049,280.400 159.353 C 280.400 159.658,280.040 160.001,279.600 160.116 C 279.160 160.231,278.800 160.591,278.800 160.916 C 278.800 161.241,278.440 161.601,278.000 161.716 C 277.560 161.831,277.200 162.212,277.200 162.563 C 277.200 162.913,276.942 163.200,276.627 163.200 C 276.312 163.200,275.940 163.560,275.800 164.000 C 275.660 164.440,275.288 164.800,274.973 164.800 C 274.658 164.800,274.400 165.160,274.400 165.600 C 274.400 166.133,274.133 166.400,273.600 166.400 C 273.067 166.400,272.800 166.667,272.800 167.200 C 272.800 167.733,272.533 168.000,272.000 168.000 C 271.467 168.000,271.200 168.267,271.200 168.800 C 271.200 169.333,270.933 169.600,270.400 169.600 C 269.867 169.600,269.600 169.867,269.600 170.400 C 269.600 170.933,269.333 171.200,268.800 171.200 C 268.267 171.200,268.000 171.467,268.000 172.000 C 268.000 172.533,267.733 172.800,267.200 172.800 C 266.667 172.800,266.400 173.067,266.400 173.600 C 266.400 174.133,266.133 174.400,265.600 174.400 C 265.135 174.400,264.800 174.667,264.800 175.037 C 264.800 175.388,264.440 175.769,264.000 175.884 C 263.560 175.999,263.200 176.321,263.200 176.600 C 263.200 176.879,262.840 177.201,262.400 177.316 C 261.960 177.431,261.600 177.791,261.600 178.116 C 261.600 178.441,261.240 178.801,260.800 178.916 C 260.360 179.031,260.000 179.412,260.000 179.763 C 260.000 180.113,259.730 180.400,259.400 180.400 C 259.067 180.400,258.800 180.756,258.800 181.200 C 258.800 181.733,258.533 182.000,258.000 182.000 C 257.467 182.000,257.200 182.267,257.200 182.800 C 257.200 183.333,256.933 183.600,256.400 183.600 C 255.867 183.600,255.600 183.867,255.600 184.400 C 255.600 184.933,255.333 185.200,254.800 185.200 C 254.267 185.200,254.000 185.467,254.000 186.000 C 254.000 186.533,253.733 186.800,253.200 186.800 C 252.667 186.800,252.400 187.067,252.400 187.600 C 252.400 188.133,252.133 188.400,251.600 188.400 C 251.067 188.400,250.800 188.667,250.800 189.200 C 250.800 189.733,250.533 190.000,250.000 190.000 C 249.467 190.000,249.200 190.267,249.200 190.800 C 249.200 191.333,248.933 191.600,248.400 191.600 C 247.960 191.600,247.600 191.858,247.600 192.173 C 247.600 192.488,247.240 192.860,246.800 193.000 C 246.360 193.140,246.000 193.512,246.000 193.827 C 246.000 194.142,245.713 194.400,245.363 194.400 C 245.012 194.400,244.631 194.760,244.516 195.200 C 244.401 195.640,244.070 196.000,243.780 196.000 C 243.491 196.000,243.140 196.360,243.000 196.800 C 242.860 197.240,242.488 197.600,242.173 197.600 C 241.858 197.600,241.600 197.960,241.600 198.400 C 241.600 198.933,241.333 199.200,240.800 199.200 C 240.267 199.200,240.000 199.467,240.000 200.000 C 240.000 200.533,239.733 200.800,239.200 200.800 C 238.667 200.800,238.400 201.067,238.400 201.600 C 238.400 202.133,238.133 202.400,237.600 202.400 C 237.067 202.400,236.800 202.667,236.800 203.200 C 236.800 203.733,236.533 204.000,236.000 204.000 C 235.467 204.000,235.200 204.267,235.200 204.800 C 235.200 205.333,234.933 205.600,234.400 205.600 C 233.867 205.600,233.600 205.867,233.600 206.400 C 233.600 206.933,233.333 207.200,232.800 207.200 C 232.267 207.200,232.000 207.467,232.000 208.000 C 232.000 208.533,231.733 208.800,231.200 208.800 C 230.760 208.800,230.400 209.058,230.400 209.373 C 230.400 209.688,230.040 210.060,229.600 210.200 C 229.160 210.340,228.800 210.712,228.800 211.027 C 228.800 211.342,228.513 211.600,228.163 211.600 C 227.812 211.600,227.431 211.960,227.316 212.400 C 227.201 212.840,226.879 213.200,226.600 213.200 C 226.321 213.200,225.999 213.560,225.884 214.000 C 225.769 214.440,225.388 214.800,225.037 214.800 C 224.667 214.800,224.400 215.135,224.400 215.600 C 224.400 216.133,224.133 216.400,223.600 216.400 C 223.067 216.400,222.800 216.667,222.800 217.200 C 222.800 217.733,222.533 218.000,222.000 218.000 C 221.467 218.000,221.200 218.267,221.200 218.800 C 221.200 219.333,220.933 219.600,220.400 219.600 C 219.867 219.600,219.600 219.867,219.600 220.400 C 219.600 220.933,219.333 221.200,218.800 221.200 C 218.267 221.200,218.000 221.467,218.000 222.000 C 218.000 222.533,217.733 222.800,217.200 222.800 C 216.667 222.800,216.400 223.067,216.400 223.600 C 216.400 224.133,216.133 224.400,215.600 224.400 C 215.067 224.400,214.800 224.667,214.800 225.200 C 214.800 225.733,214.533 226.000,214.000 226.000 C 213.556 226.000,213.200 226.267,213.200 226.600 C 213.200 226.930,212.913 227.200,212.563 227.200 C 212.212 227.200,211.831 227.560,211.716 228.000 C 211.601 228.440,211.270 228.800,210.980 228.800 C 210.691 228.800,210.340 229.160,210.200 229.600 C 210.060 230.040,209.688 230.400,209.373 230.400 C 209.058 230.400,208.800 230.760,208.800 231.200 C 208.800 231.733,208.533 232.000,208.000 232.000 C 207.467 232.000,207.200 232.267,207.200 232.800 C 207.200 233.452,206.933 233.600,205.763 233.600 C 204.662 233.600,204.276 233.787,204.116 234.400 C 203.795 235.626,196.205 235.626,195.884 234.400 C 195.724 233.787,195.338 233.600,194.237 233.600 C 193.067 233.600,192.800 233.452,192.800 232.800 C 192.800 232.267,192.533 232.000,192.000 232.000 C 191.467 232.000,191.200 231.733,191.200 231.200 C 191.200 230.760,190.942 230.400,190.627 230.400 C 190.312 230.400,189.940 230.040,189.800 229.600 C 189.660 229.160,189.288 228.800,188.973 228.800 C 188.658 228.800,188.400 228.513,188.400 228.163 C 188.400 227.812,188.040 227.431,187.600 227.316 C 187.160 227.201,186.800 226.858,186.800 226.553 C 186.800 226.249,186.513 226.000,186.163 226.000 C 185.812 226.000,185.431 225.640,185.316 225.200 C 185.200 224.757,184.770 224.400,184.353 224.400 C 183.867 224.400,183.600 224.117,183.600 223.600 C 183.600 223.067,183.333 222.800,182.800 222.800 C 182.267 222.800,182.000 222.533,182.000 222.000 C 182.000 221.467,181.733 221.200,181.200 221.200 C 180.667 221.200,180.400 220.933,180.400 220.400 C 180.400 219.867,180.133 219.600,179.600 219.600 C 179.067 219.600,178.800 219.333,178.800 218.800 C 178.800 218.267,178.533 218.000,178.000 218.000 C 177.467 218.000,177.200 217.733,177.200 217.200 C 177.200 216.667,176.933 216.400,176.400 216.400 C 175.867 216.400,175.600 216.133,175.600 215.600 C 175.600 215.135,175.333 214.800,174.963 214.800 C 174.612 214.800,174.231 214.440,174.116 214.000 C 174.001 213.560,173.658 213.200,173.353 213.200 C 173.049 213.200,172.800 212.913,172.800 212.563 C 172.800 212.212,172.440 211.831,172.000 211.716 C 171.560 211.601,171.200 211.241,171.200 210.916 C 171.200 210.591,170.840 210.231,170.400 210.116 C 169.960 210.001,169.600 209.658,169.600 209.353 C 169.600 209.049,169.240 208.800,168.800 208.800 C 168.267 208.800,168.000 208.533,168.000 208.000 C 168.000 207.467,167.733 207.200,167.200 207.200 C 166.667 207.200,166.400 206.933,166.400 206.400 C 166.400 205.867,166.133 205.600,165.600 205.600 C 165.067 205.600,164.800 205.333,164.800 204.800 C 164.800 204.267,164.533 204.000,164.000 204.000 C 163.467 204.000,163.200 203.733,163.200 203.200 C 163.200 202.667,162.933 202.400,162.400 202.400 C 161.867 202.400,161.600 202.133,161.600 201.600 C 161.600 201.067,161.333 200.800,160.800 200.800 C 160.267 200.800,160.000 200.533,160.000 200.000 C 160.000 199.467,159.733 199.200,159.200 199.200 C 158.667 199.200,158.400 198.933,158.400 198.400 C 158.400 197.960,158.142 197.600,157.827 197.600 C 157.512 197.600,157.140 197.240,157.000 196.800 C 156.860 196.360,156.488 196.000,156.173 196.000 C 155.858 196.000,155.600 195.713,155.600 195.363 C 155.600 195.012,155.240 194.631,154.800 194.516 C 154.360 194.401,154.000 194.070,154.000 193.780 C 154.000 193.491,153.640 193.140,153.200 193.000 C 152.760 192.860,152.400 192.488,152.400 192.173 C 152.400 191.858,152.040 191.600,151.600 191.600 C 151.067 191.600,150.800 191.333,150.800 190.800 C 150.800 190.267,150.533 190.000,150.000 190.000 C 149.467 190.000,149.200 189.733,149.200 189.200 C 149.200 188.667,148.933 188.400,148.400 188.400 C 147.867 188.400,147.600 188.133,147.600 187.600 C 147.600 187.067,147.333 186.800,146.800 186.800 C 146.267 186.800,146.000 186.533,146.000 186.000 C 146.000 185.467,145.733 185.200,145.200 185.200 C 144.667 185.200,144.400 184.933,144.400 184.400 C 144.400 183.867,144.133 183.600,143.600 183.600 C 143.067 183.600,142.800 183.333,142.800 182.800 C 142.800 182.267,142.533 182.000,142.000 182.000 C 141.467 182.000,141.200 181.733,141.200 181.200 C 141.200 180.756,140.933 180.400,140.600 180.400 C 140.270 180.400,140.000 180.113,140.000 179.763 C 140.000 179.412,139.640 179.031,139.200 178.916 C 138.760 178.801,138.400 178.441,138.400 178.116 C 138.400 177.791,138.040 177.431,137.600 177.316 C 137.160 177.201,136.800 176.870,136.800 176.580 C 136.800 176.291,136.440 175.940,136.000 175.800 C 135.560 175.660,135.200 175.288,135.200 174.973 C 135.200 174.658,134.840 174.400,134.400 174.400 C 133.867 174.400,133.600 174.133,133.600 173.600 C 133.600 173.067,133.333 172.800,132.800 172.800 C 132.267 172.800,132.000 172.533,132.000 172.000 C 132.000 171.467,131.733 171.200,131.200 171.200 C 130.667 171.200,130.400 170.933,130.400 170.400 C 130.400 169.867,130.133 169.600,129.600 169.600 C 129.067 169.600,128.800 169.333,128.800 168.800 C 128.800 168.267,128.533 168.000,128.000 168.000 C 127.467 168.000,127.200 167.733,127.200 167.200 C 127.200 166.667,126.933 166.400,126.400 166.400 C 125.867 166.400,125.600 166.133,125.600 165.600 C 125.600 165.160,125.342 164.800,125.027 164.800 C 124.712 164.800,124.340 164.440,124.200 164.000 C 124.060 163.560,123.688 163.200,123.373 163.200 C 123.058 163.200,122.800 162.913,122.800 162.563 C 122.800 162.212,122.440 161.831,122.000 161.716 C 121.560 161.601,121.200 161.241,121.200 160.916 C 121.200 160.591,120.840 160.231,120.400 160.116 C 119.960 160.001,119.600 159.658,119.600 159.353 C 119.600 159.049,119.240 158.800,118.800 158.800 C 118.267 158.800,118.000 158.533,118.000 158.000 C 118.000 157.467,117.733 157.200,117.200 157.200 C 116.667 157.200,116.400 156.933,116.400 156.400 C 116.400 155.867,116.133 155.600,115.600 155.600 C 115.067 155.600,114.800 155.333,114.800 154.800 C 114.800 154.267,114.533 154.000,114.000 154.000 C 113.467 154.000,113.200 153.733,113.200 153.200 C 113.200 152.667,112.933 152.400,112.400 152.400 C 111.867 152.400,111.600 152.133,111.600 151.600 C 111.600 151.067,111.333 150.800,110.800 150.800 C 110.267 150.800,110.000 150.533,110.000 150.000 C 110.000 149.467,109.733 149.200,109.200 149.200 C 108.667 149.200,108.400 148.933,108.400 148.400 C 108.400 147.956,108.133 147.600,107.800 147.600 C 107.470 147.600,107.200 147.313,107.200 146.963 C 107.200 146.612,106.840 146.231,106.400 146.116 C 105.960 146.001,105.600 145.641,105.600 145.316 C 105.600 144.991,105.240 144.631,104.800 144.516 C 104.360 144.401,104.000 144.041,104.000 143.716 C 104.000 143.391,103.640 143.031,103.200 142.916 C 102.760 142.801,102.400 142.458,102.400 142.153 C 102.400 141.849,102.040 141.600,101.600 141.600 C 101.067 141.600,100.800 141.333,100.800 140.800 C 100.800 140.267,100.533 140.000,100.000 140.000 C 99.467 140.000,99.200 139.733,99.200 139.200 C 99.200 138.667,98.933 138.400,98.400 138.400 C 97.867 138.400,97.600 138.133,97.600 137.600 C 97.600 137.067,97.333 136.800,96.800 136.800 C 96.267 136.800,96.000 136.533,96.000 136.000 C 96.000 135.467,95.733 135.200,95.200 135.200 C 94.667 135.200,94.400 134.933,94.400 134.400 C 94.400 133.867,94.133 133.600,93.600 133.600 C 93.067 133.600,92.800 133.333,92.800 132.800 C 92.800 132.267,92.533 132.000,92.000 132.000 C 91.467 132.000,91.200 131.733,91.200 131.200 C 91.200 130.756,90.933 130.400,90.600 130.400 C 90.270 130.400,90.000 130.113,90.000 129.763 C 90.000 129.412,89.640 129.031,89.200 128.916 C 88.760 128.801,88.400 128.441,88.400 128.116 C 88.400 127.791,88.040 127.431,87.600 127.316 C 87.160 127.201,86.800 126.870,86.800 126.580 C 86.800 126.291,86.440 125.940,86.000 125.800 C 85.560 125.660,85.200 125.288,85.200 124.973 C 85.200 124.658,84.840 124.400,84.400 124.400 C 83.867 124.400,83.600 124.133,83.600 123.600 C 83.600 123.067,83.333 122.800,82.800 122.800 C 82.267 122.800,82.000 122.533,82.000 122.000 C 82.000 121.467,81.733 121.200,81.200 121.200 C 80.667 121.200,80.400 120.933,80.400 120.400 C 80.400 119.867,80.133 119.600,79.600 119.600 C 79.067 119.600,78.800 119.333,78.800 118.800 C 78.800 118.267,78.533 118.000,78.000 118.000 C 77.467 118.000,77.200 117.733,77.200 117.200 C 77.200 116.667,76.933 116.400,76.400 116.400 C 75.867 116.400,75.600 116.133,75.600 115.600 C 75.600 115.160,75.342 114.800,75.027 114.800 C 74.712 114.800,74.340 114.440,74.200 114.000 C 74.060 113.560,73.688 113.200,73.373 113.200 C 73.058 113.200,72.800 112.913,72.800 112.563 C 72.800 112.212,72.440 111.831,72.000 111.716 C 71.560 111.601,71.200 111.241,71.200 110.916 C 71.200 110.591,70.840 110.231,70.400 110.116 C 69.960 110.001,69.600 109.658,69.600 109.353 C 69.600 109.049,69.240 108.800,68.800 108.800 C 68.267 108.800,68.000 108.533,68.000 108.000 C 68.000 107.467,67.733 107.200,67.200 107.200 C 66.667 107.200,66.400 106.933,66.400 106.400 C 66.400 105.867,66.133 105.600,65.600 105.600 C 65.067 105.600,64.800 105.333,64.800 104.800 C 64.800 104.267,64.533 104.000,64.000 104.000 C 63.467 104.000,63.200 103.733,63.200 103.200 C 63.200 102.667,62.933 102.400,62.400 102.400 C 61.867 102.400,61.600 102.133,61.600 101.600 C 61.600 101.067,61.333 100.800,60.800 100.800 C 60.267 100.800,60.000 100.533,60.000 100.000 C 60.000 99.467,59.733 99.200,59.200 99.200 C 58.667 99.200,58.400 98.933,58.400 98.400 C 58.400 97.960,58.151 97.600,57.847 97.600 C 57.542 97.600,57.199 97.240,57.084 96.800 C 56.969 96.360,56.588 96.000,56.237 96.000 C 55.887 96.000,55.600 95.713,55.600 95.363 C 55.600 95.012,55.240 94.631,54.800 94.516 C 54.360 94.401,54.000 94.041,54.000 93.716 C 54.000 93.391,53.640 93.031,53.200 92.916 C 52.760 92.801,52.400 92.458,52.400 92.153 C 52.400 91.849,52.040 91.600,51.600 91.600 C 51.067 91.600,50.800 91.333,50.800 90.800 C 50.800 90.267,50.533 90.000,50.000 90.000 C 49.467 90.000,49.200 89.733,49.200 89.200 C 49.200 88.667,48.933 88.400,48.400 88.400 C 47.867 88.400,47.600 88.133,47.600 87.600 C 47.600 87.067,47.333 86.800,46.800 86.800 C 46.267 86.800,46.000 86.533,46.000 86.000 C 46.000 85.467,45.733 85.200,45.200 85.200 C 44.667 85.200,44.400 84.933,44.400 84.400 C 44.400 83.601,44.667 83.600,200.000 83.600 C 355.333 83.600,355.600 83.601,355.600 84.400 M25.884 104.400 C 25.999 104.840,26.359 105.200,26.684 105.200 C 27.009 105.200,27.369 105.560,27.484 106.000 C 27.599 106.440,27.959 106.800,28.284 106.800 C 28.609 106.800,28.969 107.160,29.084 107.600 C 29.199 108.040,29.530 108.400,29.820 108.400 C 30.109 108.400,30.460 108.760,30.600 109.200 C 30.740 109.640,31.112 110.000,31.427 110.000 C 31.742 110.000,32.000 110.287,32.000 110.637 C 32.000 110.988,32.360 111.369,32.800 111.484 C 33.240 111.599,33.600 111.959,33.600 112.284 C 33.600 112.609,33.960 112.969,34.400 113.084 C 34.840 113.199,35.200 113.559,35.200 113.884 C 35.200 114.209,35.560 114.569,36.000 114.684 C 36.440 114.799,36.800 115.159,36.800 115.484 C 36.800 115.809,37.160 116.169,37.600 116.284 C 38.040 116.399,38.400 116.759,38.400 117.084 C 38.400 117.409,38.760 117.769,39.200 117.884 C 39.640 117.999,40.000 118.330,40.000 118.620 C 40.000 118.909,40.360 119.260,40.800 119.400 C 41.240 119.540,41.600 119.891,41.600 120.180 C 41.600 120.470,41.960 120.801,42.400 120.916 C 42.840 121.031,43.200 121.412,43.200 121.763 C 43.200 122.113,43.487 122.400,43.837 122.400 C 44.188 122.400,44.569 122.760,44.684 123.200 C 44.799 123.640,45.130 124.000,45.420 124.000 C 45.709 124.000,46.060 124.360,46.200 124.800 C 46.340 125.240,46.700 125.600,47.000 125.600 C 47.300 125.600,47.660 125.960,47.800 126.400 C 47.940 126.840,48.312 127.200,48.627 127.200 C 48.942 127.200,49.200 127.487,49.200 127.837 C 49.200 128.188,49.560 128.569,50.000 128.684 C 50.440 128.799,50.800 129.159,50.800 129.484 C 50.800 129.809,51.160 130.169,51.600 130.284 C 52.040 130.399,52.400 130.759,52.400 131.084 C 52.400 131.409,52.760 131.769,53.200 131.884 C 53.640 131.999,54.000 132.359,54.000 132.684 C 54.000 133.009,54.360 133.369,54.800 133.484 C 55.240 133.599,55.600 133.959,55.600 134.284 C 55.600 134.609,55.960 134.969,56.400 135.084 C 56.840 135.199,57.200 135.530,57.200 135.820 C 57.200 136.109,57.560 136.460,58.000 136.600 C 58.440 136.740,58.800 137.100,58.800 137.400 C 58.800 137.700,59.160 138.060,59.600 138.200 C 60.040 138.340,60.400 138.712,60.400 139.027 C 60.400 139.342,60.658 139.600,60.973 139.600 C 61.288 139.600,61.660 139.960,61.800 140.400 C 61.940 140.840,62.312 141.200,62.627 141.200 C 62.942 141.200,63.200 141.487,63.200 141.837 C 63.200 142.188,63.560 142.569,64.000 142.684 C 64.440 142.799,64.800 143.159,64.800 143.484 C 64.800 143.809,65.160 144.169,65.600 144.284 C 66.040 144.399,66.400 144.759,66.400 145.084 C 66.400 145.409,66.760 145.769,67.200 145.884 C 67.640 145.999,68.000 146.359,68.000 146.684 C 68.000 147.009,68.360 147.369,68.800 147.484 C 69.240 147.599,69.600 147.959,69.600 148.284 C 69.600 148.609,69.960 148.969,70.400 149.084 C 70.840 149.199,71.200 149.559,71.200 149.884 C 71.200 150.209,71.560 150.569,72.000 150.684 C 72.440 150.799,72.800 151.159,72.800 151.484 C 72.800 151.809,73.160 152.169,73.600 152.284 C 74.040 152.399,74.400 152.759,74.400 153.084 C 74.400 153.409,74.760 153.769,75.200 153.884 C 75.640 153.999,76.000 154.330,76.000 154.620 C 76.000 154.909,76.360 155.260,76.800 155.400 C 77.240 155.540,77.600 155.912,77.600 156.227 C 77.600 156.542,77.858 156.800,78.173 156.800 C 78.488 156.800,78.860 157.160,79.000 157.600 C 79.140 158.040,79.512 158.400,79.827 158.400 C 80.142 158.400,80.400 158.687,80.400 159.037 C 80.400 159.388,80.760 159.769,81.200 159.884 C 81.640 159.999,82.000 160.359,82.000 160.684 C 82.000 161.009,82.360 161.369,82.800 161.484 C 83.240 161.599,83.600 161.959,83.600 162.284 C 83.600 162.609,83.960 162.969,84.400 163.084 C 84.840 163.199,85.200 163.559,85.200 163.884 C 85.200 164.209,85.560 164.569,86.000 164.684 C 86.440 164.799,86.800 165.159,86.800 165.484 C 86.800 165.809,87.160 166.169,87.600 166.284 C 88.040 166.399,88.400 166.759,88.400 167.084 C 88.400 167.409,88.760 167.769,89.200 167.884 C 89.640 167.999,90.000 168.359,90.000 168.684 C 90.000 169.009,90.360 169.369,90.800 169.484 C 91.240 169.599,91.600 169.959,91.600 170.284 C 91.600 170.609,91.960 170.969,92.400 171.084 C 92.840 171.199,93.200 171.444,93.200 171.628 C 93.200 172.090,95.148 174.000,95.618 174.000 C 95.828 174.000,96.000 174.287,96.000 174.637 C 96.000 174.988,96.360 175.369,96.800 175.484 C 97.240 175.599,97.600 175.959,97.600 176.284 C 97.600 176.609,97.960 176.969,98.400 177.084 C 98.840 177.199,99.200 177.559,99.200 177.884 C 99.200 178.209,99.560 178.569,100.000 178.684 C 100.443 178.800,100.800 179.230,100.800 179.647 C 100.800 180.133,101.083 180.400,101.600 180.400 C 102.133 180.400,102.400 180.667,102.400 181.200 C 102.400 181.733,102.667 182.000,103.200 182.000 C 103.733 182.000,104.000 182.267,104.000 182.800 C 104.000 183.333,104.267 183.600,104.800 183.600 C 105.265 183.600,105.600 183.867,105.600 184.237 C 105.600 184.588,105.960 184.969,106.400 185.084 C 106.840 185.199,107.200 185.559,107.200 185.884 C 107.200 186.209,107.560 186.569,108.000 186.684 C 108.440 186.799,108.800 187.159,108.800 187.484 C 108.800 187.809,109.160 188.169,109.600 188.284 C 110.040 188.399,110.400 188.742,110.400 189.047 C 110.400 189.351,110.670 189.600,111.000 189.600 C 111.330 189.600,111.600 189.887,111.600 190.237 C 111.600 190.588,111.960 190.969,112.400 191.084 C 112.840 191.199,113.200 191.559,113.200 191.884 C 113.200 192.209,113.560 192.569,114.000 192.684 C 114.440 192.799,114.800 193.159,114.800 193.484 C 114.800 193.809,115.160 194.169,115.600 194.284 C 116.043 194.400,116.400 194.830,116.400 195.247 C 116.400 195.733,116.683 196.000,117.200 196.000 C 117.733 196.000,118.000 196.267,118.000 196.800 C 118.000 197.333,118.267 197.600,118.800 197.600 C 119.333 197.600,119.600 197.867,119.600 198.400 C 119.600 198.933,119.867 199.200,120.400 199.200 C 120.933 199.200,121.200 199.467,121.200 200.000 C 121.200 200.533,120.933 200.800,120.400 200.800 C 119.867 200.800,119.600 201.067,119.600 201.600 C 119.600 202.133,119.333 202.400,118.800 202.400 C 118.267 202.400,118.000 202.667,118.000 203.200 C 118.000 203.733,117.733 204.000,117.200 204.000 C 116.667 204.000,116.400 204.267,116.400 204.800 C 116.400 205.265,116.133 205.600,115.763 205.600 C 115.412 205.600,115.031 205.960,114.916 206.400 C 114.801 206.840,114.441 207.200,114.116 207.200 C 113.791 207.200,113.431 207.560,113.316 208.000 C 113.201 208.440,112.841 208.800,112.516 208.800 C 112.191 208.800,111.831 209.160,111.716 209.600 C 111.601 210.040,111.258 210.400,110.953 210.400 C 110.649 210.400,110.400 210.670,110.400 211.000 C 110.400 211.330,110.113 211.600,109.763 211.600 C 109.412 211.600,109.031 211.960,108.916 212.400 C 108.801 212.840,108.441 213.200,108.116 213.200 C 107.791 213.200,107.431 213.560,107.316 214.000 C 107.200 214.443,106.770 214.800,106.353 214.800 C 105.867 214.800,105.600 215.083,105.600 215.600 C 105.600 216.133,105.333 216.400,104.800 216.400 C 104.267 216.400,104.000 216.667,104.000 217.200 C 104.000 217.733,103.733 218.000,103.200 218.000 C 102.667 218.000,102.400 218.267,102.400 218.800 C 102.400 219.333,102.133 219.600,101.600 219.600 C 101.067 219.600,100.800 219.867,100.800 220.400 C 100.800 220.933,100.533 221.200,100.000 221.200 C 99.467 221.200,99.200 221.467,99.200 222.000 C 99.200 222.465,98.933 222.800,98.563 222.800 C 98.212 222.800,97.831 223.160,97.716 223.600 C 97.601 224.040,97.241 224.400,96.916 224.400 C 96.591 224.400,96.231 224.760,96.116 225.200 C 96.001 225.640,95.756 226.000,95.572 226.000 C 95.110 226.000,93.200 227.948,93.200 228.418 C 93.200 228.628,92.913 228.800,92.563 228.800 C 92.212 228.800,91.831 229.160,91.716 229.600 C 91.601 230.040,91.241 230.400,90.916 230.400 C 90.591 230.400,90.231 230.760,90.116 231.200 C 90.001 231.640,89.641 232.000,89.316 232.000 C 88.991 232.000,88.631 232.360,88.516 232.800 C 88.401 233.240,88.041 233.600,87.716 233.600 C 87.391 233.600,87.031 233.960,86.916 234.400 C 86.801 234.840,86.441 235.200,86.116 235.200 C 85.791 235.200,85.431 235.560,85.316 236.000 C 85.201 236.440,84.841 236.800,84.516 236.800 C 84.191 236.800,83.831 237.160,83.716 237.600 C 83.601 238.040,83.241 238.400,82.916 238.400 C 82.591 238.400,82.231 238.760,82.116 239.200 C 82.001 239.640,81.641 240.000,81.316 240.000 C 80.991 240.000,80.631 240.360,80.516 240.800 C 80.401 241.240,80.070 241.600,79.780 241.600 C 79.491 241.600,79.140 241.960,79.000 242.400 C 78.860 242.840,78.488 243.200,78.173 243.200 C 77.858 243.200,77.600 243.458,77.600 243.773 C 77.600 244.088,77.240 244.460,76.800 244.600 C 76.360 244.740,76.000 245.112,76.000 245.427 C 76.000 245.742,75.713 246.000,75.363 246.000 C 75.012 246.000,74.631 246.360,74.516 246.800 C 74.401 247.240,74.041 247.600,73.716 247.600 C 73.391 247.600,73.035 247.943,72.926 248.363 C 72.816 248.783,72.383 249.216,71.963 249.326 C 71.543 249.435,71.200 249.791,71.200 250.116 C 71.200 250.441,70.840 250.801,70.400 250.916 C 69.960 251.031,69.600 251.391,69.600 251.716 C 69.600 252.041,69.240 252.401,68.800 252.516 C 68.360 252.631,68.000 252.991,68.000 253.316 C 68.000 253.641,67.640 254.001,67.200 254.116 C 66.760 254.231,66.400 254.591,66.400 254.916 C 66.400 255.241,66.040 255.601,65.600 255.716 C 65.160 255.831,64.800 256.191,64.800 256.516 C 64.800 256.841,64.440 257.201,64.000 257.316 C 63.560 257.431,63.200 257.812,63.200 258.163 C 63.200 258.513,62.942 258.800,62.627 258.800 C 62.312 258.800,61.940 259.160,61.800 259.600 C 61.660 260.040,61.288 260.400,60.973 260.400 C 60.658 260.400,60.400 260.658,60.400 260.973 C 60.400 261.288,60.040 261.660,59.600 261.800 C 59.160 261.940,58.800 262.291,58.800 262.580 C 58.800 262.870,58.440 263.201,58.000 263.316 C 57.560 263.431,57.200 263.791,57.200 264.116 C 57.200 264.441,56.840 264.801,56.400 264.916 C 55.960 265.031,55.600 265.391,55.600 265.716 C 55.600 266.041,55.240 266.401,54.800 266.516 C 54.360 266.631,54.000 266.991,54.000 267.316 C 54.000 267.641,53.640 268.001,53.200 268.116 C 52.760 268.231,52.400 268.591,52.400 268.916 C 52.400 269.241,52.040 269.601,51.600 269.716 C 51.160 269.831,50.800 270.191,50.800 270.516 C 50.800 270.841,50.440 271.201,50.000 271.316 C 49.560 271.431,49.200 271.812,49.200 272.163 C 49.200 272.513,48.942 272.800,48.627 272.800 C 48.312 272.800,47.940 273.160,47.800 273.600 C 47.660 274.040,47.300 274.400,47.000 274.400 C 46.700 274.400,46.340 274.760,46.200 275.200 C 46.060 275.640,45.688 276.000,45.373 276.000 C 45.058 276.000,44.800 276.287,44.800 276.637 C 44.800 276.988,44.440 277.369,44.000 277.484 C 43.560 277.599,43.200 277.959,43.200 278.284 C 43.200 278.609,42.840 278.969,42.400 279.084 C 41.960 279.199,41.600 279.530,41.600 279.820 C 41.600 280.109,41.240 280.460,40.800 280.600 C 40.360 280.740,40.000 281.091,40.000 281.380 C 40.000 281.670,39.640 282.001,39.200 282.116 C 38.760 282.231,38.400 282.591,38.400 282.916 C 38.400 283.241,38.040 283.601,37.600 283.716 C 37.160 283.831,36.800 284.191,36.800 284.516 C 36.800 284.841,36.440 285.201,36.000 285.316 C 35.560 285.431,35.200 285.791,35.200 286.116 C 35.200 286.441,34.840 286.801,34.400 286.916 C 33.960 287.031,33.600 287.391,33.600 287.716 C 33.600 288.041,33.240 288.401,32.800 288.516 C 32.360 288.631,32.000 289.012,32.000 289.363 C 32.000 289.713,31.742 290.000,31.427 290.000 C 31.112 290.000,30.740 290.360,30.600 290.800 C 30.460 291.240,30.088 291.600,29.773 291.600 C 29.458 291.600,29.200 291.887,29.200 292.237 C 29.200 292.588,28.840 292.969,28.400 293.084 C 27.960 293.199,27.600 293.559,27.600 293.884 C 27.600 294.209,27.257 294.565,26.837 294.674 C 26.417 294.784,25.984 295.217,25.874 295.637 C 25.765 296.057,25.388 296.400,25.037 296.400 C 24.456 296.400,24.400 287.939,24.400 200.000 C 24.400 112.061,24.456 103.600,25.037 103.600 C 25.388 103.600,25.769 103.960,25.884 104.400 M375.600 200.000 C 375.600 287.939,375.544 296.400,374.963 296.400 C 374.612 296.400,374.235 296.057,374.126 295.637 C 374.016 295.217,373.583 294.784,373.163 294.674 C 372.743 294.565,372.400 294.188,372.400 293.837 C 372.400 293.487,372.142 293.200,371.827 293.200 C 371.512 293.200,371.140 292.840,371.000 292.400 C 370.860 291.960,370.500 291.600,370.200 291.600 C 369.900 291.600,369.540 291.240,369.400 290.800 C 369.260 290.360,368.888 290.000,368.573 290.000 C 368.258 290.000,368.000 289.713,368.000 289.363 C 368.000 289.012,367.640 288.631,367.200 288.516 C 366.760 288.401,366.400 288.041,366.400 287.716 C 366.400 287.391,366.040 287.031,365.600 286.916 C 365.160 286.801,364.800 286.441,364.800 286.116 C 364.800 285.791,364.440 285.431,364.000 285.316 C 363.560 285.201,363.200 284.841,363.200 284.516 C 363.200 284.191,362.840 283.831,362.400 283.716 C 361.960 283.601,361.600 283.241,361.600 282.916 C 361.600 282.591,361.240 282.231,360.800 282.116 C 360.360 282.001,360.000 281.641,360.000 281.316 C 360.000 280.991,359.640 280.631,359.200 280.516 C 358.760 280.401,358.400 280.070,358.400 279.780 C 358.400 279.491,358.040 279.140,357.600 279.000 C 357.160 278.860,356.800 278.509,356.800 278.220 C 356.800 277.930,356.440 277.599,356.000 277.484 C 355.560 277.369,355.200 276.988,355.200 276.637 C 355.200 276.287,354.942 276.000,354.627 276.000 C 354.312 276.000,353.940 275.640,353.800 275.200 C 353.660 274.760,353.288 274.400,352.973 274.400 C 352.658 274.400,352.400 274.113,352.400 273.763 C 352.400 273.412,352.040 273.031,351.600 272.916 C 351.160 272.801,350.800 272.441,350.800 272.116 C 350.800 271.791,350.440 271.431,350.000 271.316 C 349.560 271.201,349.200 270.841,349.200 270.516 C 349.200 270.191,348.840 269.831,348.400 269.716 C 347.960 269.601,347.600 269.241,347.600 268.916 C 347.600 268.591,347.240 268.231,346.800 268.116 C 346.360 268.001,346.000 267.641,346.000 267.316 C 346.000 266.991,345.640 266.631,345.200 266.516 C 344.760 266.401,344.400 266.041,344.400 265.716 C 344.400 265.391,344.040 265.031,343.600 264.916 C 343.160 264.801,342.800 264.441,342.800 264.116 C 342.800 263.791,342.440 263.431,342.000 263.316 C 341.560 263.201,341.200 262.870,341.200 262.580 C 341.200 262.291,340.840 261.940,340.400 261.800 C 339.960 261.660,339.600 261.288,339.600 260.973 C 339.600 260.658,339.342 260.400,339.027 260.400 C 338.712 260.400,338.340 260.040,338.200 259.600 C 338.060 259.160,337.688 258.800,337.373 258.800 C 337.058 258.800,336.800 258.513,336.800 258.163 C 336.800 257.812,336.440 257.431,336.000 257.316 C 335.560 257.201,335.200 256.841,335.200 256.516 C 335.200 256.191,334.840 255.831,334.400 255.716 C 333.960 255.601,333.600 255.241,333.600 254.916 C 333.600 254.591,333.240 254.231,332.800 254.116 C 332.360 254.001,332.000 253.641,332.000 253.316 C 332.000 252.991,331.640 252.631,331.200 252.516 C 330.760 252.401,330.400 252.041,330.400 251.716 C 330.400 251.391,330.040 251.031,329.600 250.916 C 329.160 250.801,328.800 250.441,328.800 250.116 C 328.800 249.791,328.457 249.435,328.037 249.326 C 327.617 249.216,327.184 248.783,327.074 248.363 C 326.965 247.943,326.609 247.600,326.284 247.600 C 325.959 247.600,325.599 247.240,325.484 246.800 C 325.369 246.360,324.988 246.000,324.637 246.000 C 324.287 246.000,324.000 245.828,324.000 245.618 C 324.000 245.148,322.090 243.200,321.628 243.200 C 321.444 243.200,321.199 242.840,321.084 242.400 C 320.969 241.960,320.609 241.600,320.284 241.600 C 319.959 241.600,319.599 241.240,319.484 240.800 C 319.369 240.360,319.009 240.000,318.684 240.000 C 318.359 240.000,317.999 239.640,317.884 239.200 C 317.769 238.760,317.409 238.400,317.084 238.400 C 316.759 238.400,316.399 238.040,316.284 237.600 C 316.169 237.160,315.809 236.800,315.484 236.800 C 315.159 236.800,314.799 236.440,314.684 236.000 C 314.569 235.560,314.209 235.200,313.884 235.200 C 313.559 235.200,313.199 234.840,313.084 234.400 C 312.969 233.960,312.609 233.600,312.284 233.600 C 311.959 233.600,311.599 233.240,311.484 232.800 C 311.369 232.360,311.009 232.000,310.684 232.000 C 310.359 232.000,309.999 231.640,309.884 231.200 C 309.769 230.760,309.409 230.400,309.084 230.400 C 308.759 230.400,308.399 230.040,308.284 229.600 C 308.169 229.160,307.788 228.800,307.437 228.800 C 307.087 228.800,306.800 228.629,306.800 228.421 C 306.800 227.895,305.000 226.000,304.501 226.000 C 304.277 226.000,303.999 225.640,303.884 225.200 C 303.769 224.760,303.388 224.400,303.037 224.400 C 302.667 224.400,302.400 224.065,302.400 223.600 C 302.400 223.067,302.133 222.800,301.600 222.800 C 301.067 222.800,300.800 222.533,300.800 222.000 C 300.800 221.467,300.533 221.200,300.000 221.200 C 299.467 221.200,299.200 220.933,299.200 220.400 C 299.200 219.867,298.933 219.600,298.400 219.600 C 297.867 219.600,297.600 219.333,297.600 218.800 C 297.600 218.267,297.333 218.000,296.800 218.000 C 296.267 218.000,296.000 217.733,296.000 217.200 C 296.000 216.667,295.733 216.400,295.200 216.400 C 294.667 216.400,294.400 216.133,294.400 215.600 C 294.400 215.083,294.133 214.800,293.647 214.800 C 293.230 214.800,292.800 214.443,292.684 214.000 C 292.569 213.560,292.188 213.200,291.837 213.200 C 291.487 213.200,291.200 213.015,291.200 212.789 C 291.200 212.282,287.759 208.800,287.257 208.800 C 287.057 208.800,286.799 208.440,286.684 208.000 C 286.569 207.560,286.188 207.200,285.837 207.200 C 285.467 207.200,285.200 206.865,285.200 206.400 C 285.200 205.867,284.933 205.600,284.400 205.600 C 283.867 205.600,283.600 205.333,283.600 204.800 C 283.600 204.267,283.333 204.000,282.800 204.000 C 282.267 204.000,282.000 203.733,282.000 203.200 C 282.000 202.667,281.733 202.400,281.200 202.400 C 280.667 202.400,280.400 202.133,280.400 201.600 C 280.400 201.067,280.133 200.800,279.600 200.800 C 279.067 200.800,278.800 200.533,278.800 200.000 C 278.800 199.467,279.067 199.200,279.600 199.200 C 280.133 199.200,280.400 198.933,280.400 198.400 C 280.400 197.867,280.667 197.600,281.200 197.600 C 281.733 197.600,282.000 197.333,282.000 196.800 C 282.000 196.267,282.267 196.000,282.800 196.000 C 283.333 196.000,283.600 195.733,283.600 195.200 C 283.600 194.667,283.867 194.400,284.400 194.400 C 284.933 194.400,285.200 194.133,285.200 193.600 C 285.200 193.135,285.467 192.800,285.837 192.800 C 286.188 192.800,286.569 192.440,286.684 192.000 C 286.799 191.560,287.057 191.200,287.257 191.200 C 287.759 191.200,291.200 187.718,291.200 187.211 C 291.200 186.985,291.487 186.800,291.837 186.800 C 292.188 186.800,292.569 186.440,292.684 186.000 C 292.800 185.557,293.230 185.200,293.647 185.200 C 294.133 185.200,294.400 184.917,294.400 184.400 C 294.400 183.867,294.667 183.600,295.200 183.600 C 295.733 183.600,296.000 183.333,296.000 182.800 C 296.000 182.267,296.267 182.000,296.800 182.000 C 297.333 182.000,297.600 181.733,297.600 181.200 C 297.600 180.667,297.867 180.400,298.400 180.400 C 298.933 180.400,299.200 180.133,299.200 179.600 C 299.200 179.067,299.467 178.800,300.000 178.800 C 300.533 178.800,300.800 178.533,300.800 178.000 C 300.800 177.467,301.067 177.200,301.600 177.200 C 302.133 177.200,302.400 176.933,302.400 176.400 C 302.400 175.935,302.667 175.600,303.037 175.600 C 303.388 175.600,303.769 175.240,303.884 174.800 C 303.999 174.360,304.277 174.000,304.501 174.000 C 305.000 174.000,306.800 172.105,306.800 171.579 C 306.800 171.371,307.087 171.200,307.437 171.200 C 307.788 171.200,308.169 170.840,308.284 170.400 C 308.399 169.960,308.759 169.600,309.084 169.600 C 309.409 169.600,309.769 169.240,309.884 168.800 C 309.999 168.360,310.359 168.000,310.684 168.000 C 311.009 168.000,311.369 167.640,311.484 167.200 C 311.599 166.760,311.959 166.400,312.284 166.400 C 312.609 166.400,312.969 166.040,313.084 165.600 C 313.199 165.160,313.559 164.800,313.884 164.800 C 314.209 164.800,314.569 164.440,314.684 164.000 C 314.799 163.560,315.159 163.200,315.484 163.200 C 315.809 163.200,316.169 162.840,316.284 162.400 C 316.399 161.960,316.759 161.600,317.084 161.600 C 317.409 161.600,317.769 161.240,317.884 160.800 C 317.999 160.360,318.359 160.000,318.684 160.000 C 319.009 160.000,319.369 159.640,319.484 159.200 C 319.599 158.760,319.959 158.400,320.284 158.400 C 320.609 158.400,320.969 158.040,321.084 157.600 C 321.199 157.160,321.444 156.800,321.628 156.800 C 322.090 156.800,324.000 154.852,324.000 154.382 C 324.000 154.172,324.287 154.000,324.637 154.000 C 324.988 154.000,325.369 153.640,325.484 153.200 C 325.599 152.760,325.959 152.400,326.284 152.400 C 326.609 152.400,326.969 152.040,327.084 151.600 C 327.199 151.160,327.559 150.800,327.884 150.800 C 328.209 150.800,328.569 150.440,328.684 150.000 C 328.799 149.560,329.159 149.200,329.484 149.200 C 329.809 149.200,330.169 148.840,330.284 148.400 C 330.399 147.960,330.759 147.600,331.084 147.600 C 331.409 147.600,331.769 147.240,331.884 146.800 C 331.999 146.360,332.359 146.000,332.684 146.000 C 333.009 146.000,333.369 145.640,333.484 145.200 C 333.599 144.760,333.959 144.400,334.284 144.400 C 334.609 144.400,334.969 144.040,335.084 143.600 C 335.199 143.160,335.559 142.800,335.884 142.800 C 336.209 142.800,336.569 142.440,336.684 142.000 C 336.799 141.560,337.130 141.200,337.420 141.200 C 337.709 141.200,338.060 140.840,338.200 140.400 C 338.340 139.960,338.712 139.600,339.027 139.600 C 339.342 139.600,339.600 139.342,339.600 139.027 C 339.600 138.712,339.960 138.340,340.400 138.200 C 340.840 138.060,341.200 137.688,341.200 137.373 C 341.200 137.058,341.487 136.800,341.837 136.800 C 342.188 136.800,342.569 136.440,342.684 136.000 C 342.799 135.560,343.159 135.200,343.484 135.200 C 343.809 135.200,344.169 134.840,344.284 134.400 C 344.399 133.960,344.759 133.600,345.084 133.600 C 345.409 133.600,345.769 133.240,345.884 132.800 C 345.999 132.360,346.359 132.000,346.684 132.000 C 347.009 132.000,347.369 131.640,347.484 131.200 C 347.599 130.760,347.959 130.400,348.284 130.400 C 348.609 130.400,348.969 130.040,349.084 129.600 C 349.199 129.160,349.559 128.800,349.884 128.800 C 350.209 128.800,350.569 128.440,350.684 128.000 C 350.799 127.560,351.159 127.200,351.484 127.200 C 351.809 127.200,352.169 126.840,352.284 126.400 C 352.399 125.960,352.730 125.600,353.020 125.600 C 353.309 125.600,353.660 125.240,353.800 124.800 C 353.940 124.360,354.312 124.000,354.627 124.000 C 354.942 124.000,355.200 123.713,355.200 123.363 C 355.200 123.012,355.560 122.631,356.000 122.516 C 356.440 122.401,356.800 122.070,356.800 121.780 C 356.800 121.491,357.160 121.140,357.600 121.000 C 358.040 120.860,358.400 120.500,358.400 120.200 C 358.400 119.900,358.760 119.540,359.200 119.400 C 359.640 119.260,360.000 118.888,360.000 118.573 C 360.000 118.258,360.287 118.000,360.637 118.000 C 360.988 118.000,361.369 117.640,361.484 117.200 C 361.599 116.760,361.959 116.400,362.284 116.400 C 362.609 116.400,362.969 116.040,363.084 115.600 C 363.199 115.160,363.559 114.800,363.884 114.800 C 364.209 114.800,364.569 114.440,364.684 114.000 C 364.799 113.560,365.159 113.200,365.484 113.200 C 365.809 113.200,366.169 112.840,366.284 112.400 C 366.399 111.960,366.759 111.600,367.084 111.600 C 367.409 111.600,367.769 111.240,367.884 110.800 C 367.999 110.360,368.330 110.000,368.620 110.000 C 368.909 110.000,369.260 109.640,369.400 109.200 C 369.540 108.760,369.891 108.400,370.180 108.400 C 370.470 108.400,370.801 108.040,370.916 107.600 C 371.031 107.160,371.391 106.800,371.716 106.800 C 372.041 106.800,372.401 106.440,372.516 106.000 C 372.631 105.560,372.991 105.200,373.316 105.200 C 373.641 105.200,374.001 104.840,374.116 104.400 C 374.231 103.960,374.612 103.600,374.963 103.600 C 375.544 103.600,375.600 112.061,375.600 200.000 M141.600 220.237 C 141.600 220.588,141.960 220.969,142.400 221.084 C 142.840 221.199,143.200 221.472,143.200 221.690 C 143.200 222.269,144.914 223.985,145.500 223.993 C 145.775 223.997,146.000 224.287,146.000 224.637 C 146.000 224.988,146.360 225.369,146.800 225.484 C 147.243 225.600,147.600 226.030,147.600 226.447 C 147.600 226.933,147.883 227.200,148.400 227.200 C 148.933 227.200,149.200 227.467,149.200 228.000 C 149.200 228.533,149.467 228.800,150.000 228.800 C 150.533 228.800,150.800 229.067,150.800 229.600 C 150.800 230.133,151.067 230.400,151.600 230.400 C 152.133 230.400,152.400 230.667,152.400 231.200 C 152.400 231.733,152.667 232.000,153.200 232.000 C 153.733 232.000,154.000 232.267,154.000 232.800 C 154.000 233.333,154.267 233.600,154.800 233.600 C 155.333 233.600,155.600 233.867,155.600 234.400 C 155.600 234.933,155.867 235.200,156.400 235.200 C 156.933 235.200,157.200 235.467,157.200 236.000 C 157.200 236.533,157.467 236.800,158.000 236.800 C 158.440 236.800,158.800 237.004,158.800 237.253 C 158.800 237.842,162.158 241.200,162.747 241.200 C 162.996 241.200,163.200 241.560,163.200 242.000 C 163.200 242.533,163.467 242.800,164.000 242.800 C 164.533 242.800,164.800 243.067,164.800 243.600 C 164.800 244.133,165.067 244.400,165.600 244.400 C 166.133 244.400,166.400 244.667,166.400 245.200 C 166.400 245.733,166.667 246.000,167.200 246.000 C 167.733 246.000,168.000 246.267,168.000 246.800 C 168.000 247.333,168.267 247.600,168.800 247.600 C 169.333 247.600,169.600 247.867,169.600 248.400 C 169.600 248.933,169.867 249.200,170.400 249.200 C 170.933 249.200,171.200 249.467,171.200 250.000 C 171.200 250.533,171.467 250.800,172.000 250.800 C 172.533 250.800,172.800 251.067,172.800 251.600 C 172.800 252.133,173.067 252.400,173.600 252.400 C 174.065 252.400,174.400 252.667,174.400 253.037 C 174.400 253.388,174.760 253.769,175.200 253.884 C 175.640 253.999,176.000 254.322,176.000 254.602 C 176.000 254.882,176.630 255.229,177.400 255.374 C 178.170 255.518,178.800 255.856,178.800 256.124 C 178.800 256.818,182.355 258.408,183.900 258.403 C 184.934 258.401,185.200 258.563,185.200 259.200 C 185.200 259.911,185.467 260.000,187.600 260.000 C 189.733 260.000,190.000 260.089,190.000 260.800 C 190.000 261.579,190.267 261.600,200.000 261.600 C 209.733 261.600,210.000 261.579,210.000 260.800 C 210.000 260.089,210.267 260.000,212.400 260.000 C 214.533 260.000,214.800 259.911,214.800 259.200 C 214.800 258.563,215.066 258.401,216.100 258.403 C 217.615 258.407,221.200 256.824,221.200 256.150 C 221.200 255.897,221.830 255.571,222.600 255.426 C 223.438 255.269,224.000 254.930,224.000 254.582 C 224.000 254.262,224.287 254.000,224.637 254.000 C 224.988 254.000,225.369 253.640,225.484 253.200 C 225.600 252.757,226.030 252.400,226.447 252.400 C 226.933 252.400,227.200 252.117,227.200 251.600 C 227.200 251.067,227.467 250.800,228.000 250.800 C 228.533 250.800,228.800 250.533,228.800 250.000 C 228.800 249.467,229.067 249.200,229.600 249.200 C 230.133 249.200,230.400 248.933,230.400 248.400 C 230.400 247.867,230.667 247.600,231.200 247.600 C 231.733 247.600,232.000 247.333,232.000 246.800 C 232.000 246.267,232.267 246.000,232.800 246.000 C 233.333 246.000,233.600 245.733,233.600 245.200 C 233.600 244.667,233.867 244.400,234.400 244.400 C 234.933 244.400,235.200 244.133,235.200 243.600 C 235.200 243.067,235.467 242.800,236.000 242.800 C 236.533 242.800,236.800 242.533,236.800 242.000 C 236.800 241.467,237.067 241.200,237.600 241.200 C 238.040 241.200,238.400 241.028,238.400 240.818 C 238.400 240.322,240.322 238.400,240.818 238.400 C 241.028 238.400,241.200 238.040,241.200 237.600 C 241.200 237.067,241.467 236.800,242.000 236.800 C 242.533 236.800,242.800 236.533,242.800 236.000 C 242.800 235.467,243.067 235.200,243.600 235.200 C 244.133 235.200,244.400 234.933,244.400 234.400 C 244.400 233.867,244.667 233.600,245.200 233.600 C 245.733 233.600,246.000 233.333,246.000 232.800 C 246.000 232.267,246.267 232.000,246.800 232.000 C 247.333 232.000,247.600 231.733,247.600 231.200 C 247.600 230.667,247.867 230.400,248.400 230.400 C 248.933 230.400,249.200 230.133,249.200 229.600 C 249.200 229.067,249.467 228.800,250.000 228.800 C 250.533 228.800,250.800 228.533,250.800 228.000 C 250.800 227.467,251.067 227.200,251.600 227.200 C 252.133 227.200,252.400 226.933,252.400 226.400 C 252.400 225.867,252.667 225.600,253.200 225.600 C 253.733 225.600,254.000 225.333,254.000 224.800 C 254.000 224.360,254.239 224.000,254.530 224.000 C 254.822 224.000,255.586 223.370,256.228 222.600 C 256.870 221.830,257.622 221.200,257.898 221.200 C 258.174 221.200,258.400 220.840,258.400 220.400 C 258.400 219.867,258.667 219.600,259.200 219.600 C 259.665 219.600,260.000 219.867,260.000 220.237 C 260.000 220.588,260.360 220.969,260.800 221.084 C 261.240 221.199,261.600 221.559,261.600 221.884 C 261.600 222.209,261.960 222.569,262.400 222.684 C 262.840 222.799,263.200 223.121,263.200 223.400 C 263.200 223.679,263.560 224.001,264.000 224.116 C 264.440 224.231,264.800 224.612,264.800 224.963 C 264.800 225.333,265.135 225.600,265.600 225.600 C 266.133 225.600,266.400 225.867,266.400 226.400 C 266.400 226.933,266.667 227.200,267.200 227.200 C 267.733 227.200,268.000 227.467,268.000 228.000 C 268.000 228.533,268.267 228.800,268.800 228.800 C 269.333 228.800,269.600 229.067,269.600 229.600 C 269.600 230.133,269.867 230.400,270.400 230.400 C 270.933 230.400,271.200 230.667,271.200 231.200 C 271.200 231.733,271.467 232.000,272.000 232.000 C 272.533 232.000,272.800 232.267,272.800 232.800 C 272.800 233.333,273.067 233.600,273.600 233.600 C 274.133 233.600,274.400 233.867,274.400 234.400 C 274.400 234.840,274.658 235.200,274.973 235.200 C 275.288 235.200,275.660 235.560,275.800 236.000 C 275.940 236.440,276.312 236.800,276.627 236.800 C 276.942 236.800,277.200 237.087,277.200 237.437 C 277.200 237.788,277.560 238.169,278.000 238.284 C 278.440 238.399,278.800 238.759,278.800 239.084 C 278.800 239.409,279.160 239.769,279.600 239.884 C 280.040 239.999,280.400 240.342,280.400 240.647 C 280.400 240.951,280.760 241.200,281.200 241.200 C 281.733 241.200,282.000 241.467,282.000 242.000 C 282.000 242.533,282.267 242.800,282.800 242.800 C 283.333 242.800,283.600 243.067,283.600 243.600 C 283.600 244.133,283.867 244.400,284.400 244.400 C 284.933 244.400,285.200 244.667,285.200 245.200 C 285.200 245.733,285.467 246.000,286.000 246.000 C 286.533 246.000,286.800 246.267,286.800 246.800 C 286.800 247.333,287.067 247.600,287.600 247.600 C 288.133 247.600,288.400 247.867,288.400 248.400 C 288.400 248.933,288.667 249.200,289.200 249.200 C 289.733 249.200,290.000 249.467,290.000 250.000 C 290.000 250.533,290.267 250.800,290.800 250.800 C 291.333 250.800,291.600 251.067,291.600 251.600 C 291.600 252.040,291.849 252.400,292.153 252.400 C 292.458 252.400,292.801 252.760,292.916 253.200 C 293.031 253.640,293.391 254.000,293.716 254.000 C 294.041 254.000,294.401 254.360,294.516 254.800 C 294.631 255.240,294.991 255.600,295.316 255.600 C 295.641 255.600,296.001 255.960,296.116 256.400 C 296.231 256.840,296.612 257.200,296.963 257.200 C 297.313 257.200,297.600 257.470,297.600 257.800 C 297.600 258.133,297.956 258.400,298.400 258.400 C 298.933 258.400,299.200 258.667,299.200 259.200 C 299.200 259.733,299.467 260.000,300.000 260.000 C 300.533 260.000,300.800 260.267,300.800 260.800 C 300.800 261.333,301.067 261.600,301.600 261.600 C 302.133 261.600,302.400 261.867,302.400 262.400 C 302.400 262.933,302.667 263.200,303.200 263.200 C 303.733 263.200,304.000 263.467,304.000 264.000 C 304.000 264.533,304.267 264.800,304.800 264.800 C 305.333 264.800,305.600 265.067,305.600 265.600 C 305.600 266.133,305.867 266.400,306.400 266.400 C 306.933 266.400,307.200 266.667,307.200 267.200 C 307.200 267.733,307.467 268.000,308.000 268.000 C 308.533 268.000,308.800 268.267,308.800 268.800 C 308.800 269.240,309.049 269.600,309.353 269.600 C 309.658 269.600,310.001 269.960,310.116 270.400 C 310.231 270.840,310.591 271.200,310.916 271.200 C 311.241 271.200,311.601 271.560,311.716 272.000 C 311.831 272.440,312.212 272.800,312.563 272.800 C 312.913 272.800,313.200 273.058,313.200 273.373 C 313.200 273.688,313.560 274.060,314.000 274.200 C 314.440 274.340,314.800 274.712,314.800 275.027 C 314.800 275.342,315.160 275.600,315.600 275.600 C 316.133 275.600,316.400 275.867,316.400 276.400 C 316.400 276.933,316.667 277.200,317.200 277.200 C 317.733 277.200,318.000 277.467,318.000 278.000 C 318.000 278.533,318.267 278.800,318.800 278.800 C 319.333 278.800,319.600 279.067,319.600 279.600 C 319.600 280.133,319.867 280.400,320.400 280.400 C 320.933 280.400,321.200 280.667,321.200 281.200 C 321.200 281.733,321.467 282.000,322.000 282.000 C 322.533 282.000,322.800 282.267,322.800 282.800 C 322.800 283.333,323.067 283.600,323.600 283.600 C 324.133 283.600,324.400 283.867,324.400 284.400 C 324.400 284.840,324.658 285.200,324.973 285.200 C 325.288 285.200,325.660 285.560,325.800 286.000 C 325.940 286.440,326.291 286.800,326.580 286.800 C 326.870 286.800,327.201 287.160,327.316 287.600 C 327.431 288.040,327.791 288.400,328.116 288.400 C 328.441 288.400,328.801 288.760,328.916 289.200 C 329.031 289.640,329.412 290.000,329.763 290.000 C 330.113 290.000,330.400 290.270,330.400 290.600 C 330.400 290.933,330.756 291.200,331.200 291.200 C 331.733 291.200,332.000 291.467,332.000 292.000 C 332.000 292.533,332.267 292.800,332.800 292.800 C 333.333 292.800,333.600 293.067,333.600 293.600 C 333.600 294.133,333.867 294.400,334.400 294.400 C 334.933 294.400,335.200 294.667,335.200 295.200 C 335.200 295.733,335.467 296.000,336.000 296.000 C 336.533 296.000,336.800 296.267,336.800 296.800 C 336.800 297.333,337.067 297.600,337.600 297.600 C 338.133 297.600,338.400 297.867,338.400 298.400 C 338.400 298.933,338.667 299.200,339.200 299.200 C 339.733 299.200,340.000 299.467,340.000 300.000 C 340.000 300.533,340.267 300.800,340.800 300.800 C 341.333 300.800,341.600 301.067,341.600 301.600 C 341.600 302.040,341.849 302.400,342.153 302.400 C 342.458 302.400,342.801 302.760,342.916 303.200 C 343.031 303.640,343.412 304.000,343.763 304.000 C 344.113 304.000,344.400 304.287,344.400 304.637 C 344.400 304.988,344.760 305.369,345.200 305.484 C 345.640 305.599,346.000 305.959,346.000 306.284 C 346.000 306.609,346.360 306.969,346.800 307.084 C 347.240 307.199,347.600 307.542,347.600 307.847 C 347.600 308.151,347.960 308.400,348.400 308.400 C 348.933 308.400,349.200 308.667,349.200 309.200 C 349.200 309.733,349.467 310.000,350.000 310.000 C 350.533 310.000,350.800 310.267,350.800 310.800 C 350.800 311.333,351.067 311.600,351.600 311.600 C 352.133 311.600,352.400 311.867,352.400 312.400 C 352.400 312.933,352.667 313.200,353.200 313.200 C 353.733 313.200,354.000 313.467,354.000 314.000 C 354.000 314.533,354.267 314.800,354.800 314.800 C 355.333 314.800,355.600 315.067,355.600 315.600 C 355.600 316.399,355.333 316.400,200.000 316.400 C 44.667 316.400,44.400 316.399,44.400 315.600 C 44.400 315.067,44.667 314.800,45.200 314.800 C 45.733 314.800,46.000 314.533,46.000 314.000 C 46.000 313.467,46.267 313.200,46.800 313.200 C 47.333 313.200,47.600 312.933,47.600 312.400 C 47.600 311.867,47.867 311.600,48.400 311.600 C 48.933 311.600,49.200 311.333,49.200 310.800 C 49.200 310.267,49.467 310.000,50.000 310.000 C 50.533 310.000,50.800 309.733,50.800 309.200 C 50.800 308.667,51.067 308.400,51.600 308.400 C 52.044 308.400,52.400 308.133,52.400 307.800 C 52.400 307.470,52.687 307.200,53.037 307.200 C 53.388 307.200,53.769 306.840,53.884 306.400 C 53.999 305.960,54.359 305.600,54.684 305.600 C 55.009 305.600,55.369 305.240,55.484 304.800 C 55.599 304.360,55.959 304.000,56.284 304.000 C 56.609 304.000,56.969 303.640,57.084 303.200 C 57.199 302.760,57.542 302.400,57.847 302.400 C 58.151 302.400,58.400 302.040,58.400 301.600 C 58.400 301.067,58.667 300.800,59.200 300.800 C 59.733 300.800,60.000 300.533,60.000 300.000 C 60.000 299.467,60.267 299.200,60.800 299.200 C 61.333 299.200,61.600 298.933,61.600 298.400 C 61.600 297.867,61.867 297.600,62.400 297.600 C 62.933 297.600,63.200 297.333,63.200 296.800 C 63.200 296.267,63.467 296.000,64.000 296.000 C 64.533 296.000,64.800 295.733,64.800 295.200 C 64.800 294.667,65.067 294.400,65.600 294.400 C 66.133 294.400,66.400 294.133,66.400 293.600 C 66.400 293.067,66.667 292.800,67.200 292.800 C 67.733 292.800,68.000 292.533,68.000 292.000 C 68.000 291.467,68.267 291.200,68.800 291.200 C 69.244 291.200,69.600 290.933,69.600 290.600 C 69.600 290.270,69.887 290.000,70.237 290.000 C 70.588 290.000,70.969 289.640,71.084 289.200 C 71.199 288.760,71.559 288.400,71.884 288.400 C 72.209 288.400,72.569 288.040,72.684 287.600 C 72.799 287.160,73.130 286.800,73.420 286.800 C 73.709 286.800,74.060 286.440,74.200 286.000 C 74.340 285.560,74.712 285.200,75.027 285.200 C 75.342 285.200,75.600 284.840,75.600 284.400 C 75.600 283.867,75.867 283.600,76.400 283.600 C 76.933 283.600,77.200 283.333,77.200 282.800 C 77.200 282.267,77.467 282.000,78.000 282.000 C 78.533 282.000,78.800 281.733,78.800 281.200 C 78.800 280.667,79.067 280.400,79.600 280.400 C 80.133 280.400,80.400 280.133,80.400 279.600 C 80.400 279.067,80.667 278.800,81.200 278.800 C 81.733 278.800,82.000 278.533,82.000 278.000 C 82.000 277.467,82.267 277.200,82.800 277.200 C 83.333 277.200,83.600 276.933,83.600 276.400 C 83.600 275.867,83.867 275.600,84.400 275.600 C 84.840 275.600,85.200 275.342,85.200 275.027 C 85.200 274.712,85.560 274.340,86.000 274.200 C 86.440 274.060,86.800 273.688,86.800 273.373 C 86.800 273.058,87.087 272.800,87.437 272.800 C 87.788 272.800,88.169 272.440,88.284 272.000 C 88.399 271.560,88.759 271.200,89.084 271.200 C 89.409 271.200,89.769 270.840,89.884 270.400 C 89.999 269.960,90.342 269.600,90.647 269.600 C 90.951 269.600,91.200 269.240,91.200 268.800 C 91.200 268.267,91.467 268.000,92.000 268.000 C 92.533 268.000,92.800 267.733,92.800 267.200 C 92.800 266.667,93.067 266.400,93.600 266.400 C 94.133 266.400,94.400 266.133,94.400 265.600 C 94.400 265.067,94.667 264.800,95.200 264.800 C 95.733 264.800,96.000 264.533,96.000 264.000 C 96.000 263.467,96.267 263.200,96.800 263.200 C 97.333 263.200,97.600 262.933,97.600 262.400 C 97.600 261.867,97.867 261.600,98.400 261.600 C 98.933 261.600,99.200 261.333,99.200 260.800 C 99.200 260.267,99.467 260.000,100.000 260.000 C 100.533 260.000,100.800 259.733,100.800 259.200 C 100.800 258.667,101.067 258.400,101.600 258.400 C 102.044 258.400,102.400 258.133,102.400 257.800 C 102.400 257.470,102.687 257.200,103.037 257.200 C 103.388 257.200,103.769 256.840,103.884 256.400 C 103.999 255.960,104.359 255.600,104.684 255.600 C 105.009 255.600,105.369 255.240,105.484 254.800 C 105.599 254.360,105.959 254.000,106.284 254.000 C 106.609 254.000,106.969 253.640,107.084 253.200 C 107.199 252.760,107.542 252.400,107.847 252.400 C 108.151 252.400,108.400 252.040,108.400 251.600 C 108.400 251.067,108.667 250.800,109.200 250.800 C 109.733 250.800,110.000 250.533,110.000 250.000 C 110.000 249.467,110.267 249.200,110.800 249.200 C 111.333 249.200,111.600 248.933,111.600 248.400 C 111.600 247.867,111.867 247.600,112.400 247.600 C 112.933 247.600,113.200 247.333,113.200 246.800 C 113.200 246.267,113.467 246.000,114.000 246.000 C 114.533 246.000,114.800 245.733,114.800 245.200 C 114.800 244.667,115.067 244.400,115.600 244.400 C 116.133 244.400,116.400 244.133,116.400 243.600 C 116.400 243.067,116.667 242.800,117.200 242.800 C 117.733 242.800,118.000 242.533,118.000 242.000 C 118.000 241.467,118.267 241.200,118.800 241.200 C 119.244 241.200,119.600 240.933,119.600 240.600 C 119.600 240.270,119.887 240.000,120.237 240.000 C 120.588 240.000,120.969 239.640,121.084 239.200 C 121.199 238.760,121.559 238.400,121.884 238.400 C 122.209 238.400,122.569 238.040,122.684 237.600 C 122.799 237.160,123.130 236.800,123.420 236.800 C 123.709 236.800,124.060 236.440,124.200 236.000 C 124.340 235.560,124.712 235.200,125.027 235.200 C 125.342 235.200,125.600 234.840,125.600 234.400 C 125.600 233.867,125.867 233.600,126.400 233.600 C 126.933 233.600,127.200 233.333,127.200 232.800 C 127.200 232.267,127.467 232.000,128.000 232.000 C 128.533 232.000,128.800 231.733,128.800 231.200 C 128.800 230.667,129.067 230.400,129.600 230.400 C 130.133 230.400,130.400 230.133,130.400 229.600 C 130.400 229.067,130.667 228.800,131.200 228.800 C 131.733 228.800,132.000 228.533,132.000 228.000 C 132.000 227.467,132.267 227.200,132.800 227.200 C 133.333 227.200,133.600 226.933,133.600 226.400 C 133.600 225.867,133.867 225.600,134.400 225.600 C 134.840 225.600,135.200 225.342,135.200 225.027 C 135.200 224.712,135.560 224.340,136.000 224.200 C 136.440 224.060,136.800 223.688,136.800 223.373 C 136.800 223.058,137.087 222.800,137.437 222.800 C 137.788 222.800,138.165 222.457,138.274 222.037 C 138.384 221.617,138.817 221.184,139.237 221.074 C 139.657 220.965,140.000 220.588,140.000 220.237 C 140.000 219.867,140.335 219.600,140.800 219.600 C 141.265 219.600,141.600 219.867,141.600 220.237 " stroke="none" fill="#040404" fill-rule="evenodd"></path><path id="path1" d="" stroke="none" fill="#080404" fill-rule="evenodd"></path><path id="path2" d="" stroke="none" fill="#080404" fill-rule="evenodd"></path><path id="path3" d="" stroke="none" fill="#080404" fill-rule="evenodd"></path><path id="path4" d="" stroke="none" fill="#080404" fill-rule="evenodd"></path></g></svg>